<?xml version="1.0" encoding="UTF-8" standalone="no"?>
<!-- Created with Inkscape (http://www.inkscape.org/) -->

<svg
   version="1.1"
   id="svg2"
   width="4801.3335"
   height="1933.3333"
   viewBox="0 0 4801.3335 1933.3333"
   sodipodi:docname="vecteezy_colorful-summer-background-layout-banner-design-landscape_23811282.eps"
   xmlns:inkscape="http://www.inkscape.org/namespaces/inkscape"
   xmlns:sodipodi="http://sodipodi.sourceforge.net/DTD/sodipodi-0.dtd"
   xmlns="http://www.w3.org/2000/svg"
   xmlns:svg="http://www.w3.org/2000/svg">
  <defs
     id="defs6">
    <clipPath
       clipPathUnits="userSpaceOnUse"
       id="clipPath26">
      <path
         d="M 36010,14500 H 0 V 0 h 36010 z"
         clip-rule="evenodd"
         id="path24" />
    </clipPath>
    <clipPath
       clipPathUnits="userSpaceOnUse"
       id="clipPath32">
      <path
         d="m -1443.77,6981.52 c 76.88,122.1 302.28,325.15 386.03,385.34 701.189,504.01 1676.529,755.01 2518.45,962.83 2232.87,551.17 4573.13,333.27 6385.02,-792.41 C 9276.2,6648.57 10378,5195.19 10542.3,3583.16 10724.3,1797.68 9262.93,582.25 7290.7,1054.26 3984.15,1845.6 1988.3,6419.13 -1443.77,6981.52 Z"
         clip-rule="evenodd"
         id="path30" />
    </clipPath>
    <clipPath
       clipPathUnits="userSpaceOnUse"
       id="clipPath64">
      <path
         d="M 36010,14500 H 0 V 0 h 36010 z"
         clip-rule="evenodd"
         id="path62" />
    </clipPath>
    <clipPath
       clipPathUnits="userSpaceOnUse"
       id="clipPath70">
      <path
         d="m 37061.5,7264.73 c -76.9,-122.09 -302.3,-325.14 -386.1,-385.34 -701.1,-504.01 -1676.5,-755 -2518.4,-962.83 -2232.9,-551.16 -4573.1,-333.26 -6385,792.41 -1430.5,888.72 -2532.3,2342.09 -2696.6,3954.13 -182,1785.5 1279.4,3000.9 3251.6,2528.9 3306.5,-791.4 5302.4,-5364.88 8734.5,-5927.27 z"
         clip-rule="evenodd"
         id="path68" />
    </clipPath>
  </defs>
  <sodipodi:namedview
     id="namedview4"
     pagecolor="#ffffff"
     bordercolor="#000000"
     borderopacity="0.25"
     inkscape:showpageshadow="2"
     inkscape:pageopacity="0.0"
     inkscape:pagecheckerboard="0"
     inkscape:deskcolor="#d1d1d1" />
  <g
     id="g8"
     inkscape:groupmode="layer"
     inkscape:label="ink_ext_XXXXXX"
     transform="matrix(1.3333333,0,0,-1.3333333,0,1933.3333)">
    <g
       id="g10"
       transform="scale(0.1)">
      <path
         d="M 36010,14500 H 0 V 0 h 36010 v 14500"
         style="fill:#ffffff;fill-opacity:1;fill-rule:evenodd;stroke:none"
         id="path12" />
      <path
         d="M 36010,14500 H 0 V 0 h 36010 v 14500"
         style="fill:#71d987;fill-opacity:1;fill-rule:evenodd;stroke:none"
         id="path14" />
      <path
         d="m 572.922,-3168.88 c -2254.802,307.71 -2357.012,5191.4 -1425.973,6700.82 819.7815,1329.03 2208.311,2186.83 2965.731,3554.41 664.92,1200.53 708.04,2879.52 1719.46,3859.95 1032.85,1001.1 3434.58,817 4804.4,1605.8 1915.26,1102.9 4354.06,6435.5 7017.56,5214.2 2706,-1240.8 -387.2,-4239.8 -1712,-5035.4 C 12418.9,11816.3 10570.2,11137.7 9601.52,9549.09 8926.07,8441.35 8767.61,7119.45 7775.88,6207.06 6572.49,5099.94 4779.11,4618.92 3798.6,3267.41 2942.17,2086.92 3235.71,499.828 2826.17,-836.551 2314.47,-2506.31 635.27,-4037.83 681.98,-5844.01 704.191,-6702.92 1271.69,-7408 1954.34,-7872.7 c 1467.86,-999.23 3422.25,-961.37 5085.7,-577.5 3036.36,700.7 5407.66,2856.86 5309.26,6104.71 -33.6,1108.77 -365.7,2382.5798 126.7,3438.9 1122.4,2407.95 4529.4,896.24 5985.4,2762.68 1114.1,1428.01 -585.9,3446.84 210.6,4957.16 749.7,1421.65 3052.1,1440.55 4286.5,2263.45 2279.5,1519.7 2061,6164.8 5570,5868.1 755,-63.9 1492.4,-486.2 1861.1,-1158.7 C 31847,13127.1 27658.9,11953.7 26753.2,10134 26028,8676.98 27627.9,7049.03 26607.9,5672.41 25533,4221.73 23397.3,3894.74 22043.8,2770.02 21076.9,1966.51 20879,643.441 19888.4,-151 c -1528.3,-1225.74 -4368.1,-1665.51 -4232.5,-4178.48 45,-832.84 508.9,-1628.91 1112.2,-2187.03 1119.5,-1035.61 2656.9,-1363.05 4139.3,-1121.47 3160.5,515.05 5496.5,3146.84 6445.7,6076.77 289,892.269 356.4,2191.71 1039.4,2896.8 901.3,930.31 2761,432.03 3470.6,1481 469.7,694.29 -488.6,1971.3 152.8,2483.24 809.1,645.86 2168.2,525.6 3073.8,1119.6 1450.4,951.44 2131.9,4445.87 4646,2855.82 C 40531.9,8771.73 41005,7845.92 41194.4,6948.49 42401,1231.29 36447.1,-1800.49 32004.7,-3211.74 28418.2,-4351.08 24774,-5474.96 20989.4,-5653.99 c -4417.1,-208.96 -8784.2,719.72 -13166.94,1080.48 -2766.13,227.69 -5919.85,20.38 -8537.651,1048.81"
         style="fill:#5dce76;fill-opacity:1;fill-rule:evenodd;stroke:none"
         id="path16" />
      <path
         d="m -1443.77,6981.52 c 76.88,122.1 302.28,325.15 386.03,385.34 701.189,504.01 1676.529,755.01 2518.45,962.83 2232.87,551.17 4573.13,333.27 6385.02,-792.41 C 9276.2,6648.57 10378,5195.19 10542.3,3583.16 10724.3,1797.68 9262.93,582.25 7290.7,1054.26 3984.15,1845.6 1988.3,6419.13 -1443.77,6981.52"
         style="fill:#25e5d8;fill-opacity:1;fill-rule:evenodd;stroke:none"
         id="path18" />
      <g
         id="g20">
        <g
           id="g22"
           clip-path="url(#clipPath26)">
          <g
             id="g28"
             clip-path="url(#clipPath32)">
            <path
               d="M 8882.72,196.262 C 8687.87,149.75 8380.76,324.75 8213.57,398.16 6494.63,1152.86 7785.7,2091.5 6959.48,2866.08 c -243.7,228.47 -581.45,309.52 -830.16,533.58 -311.93,281.02 -391.72,753.41 -844.25,885.25 -460.34,134.11 -571.59,-579.56 -1218.97,-236.37 -149.82,79.42 -283.96,184.73 -367.04,335.01 -285.02,515.56 604.96,240.8 470.17,574.58 -64.45,159.58 -1155.07,92.52 -1514.91,305.54 -301.53,178.51 37.67,573.83 -152.45,844.89 -232.03,330.81 -744.58,724.71 -609.81,783.4 189.96,82.72 1333.41,-293.09 1757.68,-217.79 533.39,94.67 348.61,458.57 712.94,624.54 318.76,145.22 321.8,-332.17 561.76,-354.87 361.25,-34.17 575.9,737.13 1455.34,168.47 411.16,-265.86 334.08,-889.3 784.04,-1111.36 661.54,-326.48 1142.31,163.79 1515.55,-769.31 155.54,-388.84 -416.57,-160.31 -487.46,-394.58 -52.6,-173.79 522.54,-806.07 580.98,-786.6 8.87,2.96 -15.78,326.2 -4.49,365.12 51.73,178.16 282.61,216.12 372.81,373.44 22.31,38.91 50.66,301.25 64.69,296.58 89.42,-29.81 170.87,-144.39 231.24,-210.74 452.35,-497.14 132.49,-778.92 354.23,-1165.17 C 10037,3281.77 10532.7,3089.22 10751.6,2622.67 11254.5,1550.4 9971.66,531.641 9205.26,10.4883"
               style="fill:#12d0c3;fill-opacity:1;fill-rule:evenodd;stroke:none"
               id="path34" />
            <path
               d="m 720.922,5470.04 c -49.223,109.72 141.648,347.35 199.168,421.94 304.53,394.97 757.17,607.72 1244.61,675.42 39.49,5.49 528.19,35.54 555.1,-18.27 1.91,-3.81 -7.8,3.46 -11.42,5.71 -87.29,54.26 -155.37,149.25 -204.45,237.19 -116.06,207.94 -185.25,434.18 -197.98,672.37 -34.82,651.59 246.72,1446.14 892.05,1717.86"
               style="fill:none;stroke:#10b0a6;stroke-width:100;stroke-linecap:round;stroke-linejoin:round;stroke-miterlimit:10;stroke-dasharray:none;stroke-opacity:1"
               id="path36" />
            <path
               d="m 1757.35,4910.93 c -3.04,-1.69 26.5,78.68 31.1,87.45 34.18,65.1 73.9,126.97 117.03,186.45 124.26,171.37 264.36,332.89 414.98,481.56 364.62,359.91 843.73,520.14 1348.95,511.17 111.69,-1.98 228.15,-32.57 337.47,-32.57 1.23,0 -31.71,54.45 -58.51,112.19 -36.55,78.77 -74.18,157.56 -107.06,237.94 -109.38,267.48 -182.7,553.3 -204.77,841.71 -18.97,248.02 -8.76,501.1 83.84,734.64 159.97,403.44 640.46,780.56 1074.82,843.51"
               style="fill:none;stroke:#10b0a6;stroke-width:100;stroke-linecap:round;stroke-linejoin:round;stroke-miterlimit:10;stroke-dasharray:none;stroke-opacity:1"
               id="path38" />
            <path
               d="m 2613.69,4170.71 c -8.91,-1.82 39.88,126.39 43.62,134.31 40.97,86.69 89.69,170.03 142.23,250.17 139.72,213.1 304.64,424.05 499.24,589.51 325.84,277.05 723.34,475.27 1134.15,590.04 122.86,34.32 251.75,74.43 380.25,78.96 52.33,1.84 104.4,-1.11 155.94,-10.57 20.03,-3.68 59.79,-32.93 59.79,-12.56 0,65.53 -108.97,209.93 -131.81,276.19 -76.98,223.31 -131.94,460.67 -154.94,695.75 -83.27,851 498,1949.57 1476.07,1863.27"
               style="fill:none;stroke:#10b0a6;stroke-width:100;stroke-linecap:round;stroke-linejoin:round;stroke-miterlimit:10;stroke-dasharray:none;stroke-opacity:1"
               id="path40" />
            <path
               d="m 3528.6,3170.9 c -32.61,218.71 136.36,501.23 229.17,685.88 311.6,620 779.82,1078.31 1417,1351.89 145.3,62.39 760.98,284.2 915.69,129.49 9.69,-9.69 -20.26,18.87 -27.75,30.34 -12.07,18.49 -20.29,39.28 -27.75,59.94 -27.08,74.99 -43.49,151.3 -45.88,231.23 -6.9,230.77 33.78,471.06 105.45,689.64 216.85,661.39 714.26,1531.77 1441.05,1732.59"
               style="fill:none;stroke:#10b0a6;stroke-width:100;stroke-linecap:round;stroke-linejoin:round;stroke-miterlimit:10;stroke-dasharray:none;stroke-opacity:1"
               id="path42" />
            <path
               d="m 4691.12,2178.97 c -164.88,551.62 230.05,1340.53 563.77,1747.97 326.06,398.08 765.28,680.99 1266.67,797.87 150.72,35.13 309.41,50.58 464.11,42.73 10.97,-0.56 225.58,-33.45 226.07,-32.48 12.29,24.6 -28.41,160.32 -27.35,194.02 5.98,190.67 56.52,383.04 112.82,564.1 225.72,726.04 769.69,1512.45 1470.51,1855.99"
               style="fill:none;stroke:#10b0a6;stroke-width:100;stroke-linecap:round;stroke-linejoin:round;stroke-miterlimit:10;stroke-dasharray:none;stroke-opacity:1"
               id="path44" />
            <path
               d="m 5801.02,1198.65 c -117.17,504.43 224.78,1342.78 471.83,1761.19 273.02,462.41 713.52,828.63 1204.7,1043.17 162.63,71.03 380.3,169.9 563.68,123.08 3.36,-0.86 31.17,-13.7 33.33,-11.54 8.82,8.82 -0.57,94.57 1.28,107.69 18.21,129.03 69.78,256.46 120.09,375.64 155.1,367.4 359.53,718.28 626.49,1015.82 260.08,289.87 591.84,576.52 973.08,688.89"
               style="fill:none;stroke:#10b0a6;stroke-width:100;stroke-linecap:round;stroke-linejoin:round;stroke-miterlimit:10;stroke-dasharray:none;stroke-opacity:1"
               id="path46" />
            <path
               d="m 7444.21,850.379 c -338.56,265.921 -144.85,1315.221 17.94,1626.831 209.14,400.33 584.22,761.89 1020.63,899.12 88.37,27.79 387.77,-18.98 417.56,-2.74 5.72,3.12 1.5,28.47 1.71,32.86 7.21,153.25 90.68,309.74 157.78,443.57 165.65,330.4 384.58,627.27 657.83,876.88 261.9,239.23 632.14,558.02 1011.34,564.05"
               style="fill:none;stroke:#10b0a6;stroke-width:100;stroke-linecap:round;stroke-linejoin:round;stroke-miterlimit:10;stroke-dasharray:none;stroke-opacity:1"
               id="path48" />
            <path
               d="m 8293.62,721.961 c -273.94,340.639 -162.42,1145.449 34.16,1486.799 165.33,287.08 429.8,487.91 755.56,552.46 97.35,19.29 201.23,18.56 298.31,-2.11 11.92,-2.54 133.8,-48.16 137.79,-42.85 36.9,49.2 74.52,244.37 110.81,316.56 148.58,295.54 352.15,564.35 618.55,763.24 237,176.86 521.7,291 820.6,254.14"
               style="fill:none;stroke:#10b0a6;stroke-width:100;stroke-linecap:round;stroke-linejoin:round;stroke-miterlimit:10;stroke-dasharray:none;stroke-opacity:1"
               id="path50" />
            <path
               d="m 464.051,5913.21 c -42.102,15.89 -39.321,173.7 -40.289,205.85 -6.5,216.19 25.957,455.15 177.539,620.6 72.32,78.94 179.539,140.11 283.187,166.91 39.922,10.33 80.883,13.3 121.902,14.69 3.14,0.11 29.38,-1.74 29.38,3.44 0,111.5 -60.27,239.43 -70.02,354.13 -40.809,480.29 44.6,1134.47 488.23,1425.6"
               style="fill:none;stroke:#10b0a6;stroke-width:100;stroke-linecap:round;stroke-linejoin:round;stroke-miterlimit:10;stroke-dasharray:none;stroke-opacity:1"
               id="path52" />
          </g>
        </g>
      </g>
      <path
         d="m -1058.26,7063.59 c 0,0 9856.36,55.5 12490.46,-7756.051"
         style="fill:none;stroke:#10b0a5;stroke-width:150;stroke-linecap:round;stroke-linejoin:round;stroke-miterlimit:10;stroke-dasharray:none;stroke-opacity:1"
         id="path54" />
      <path
         d="m 37061.5,7264.73 c -76.9,-122.09 -302.3,-325.14 -386.1,-385.34 -701.1,-504.01 -1676.5,-755 -2518.4,-962.83 -2232.9,-551.16 -4573.1,-333.26 -6385,792.41 -1430.5,888.72 -2532.3,2342.09 -2696.6,3954.13 -182,1785.5 1279.4,3000.9 3251.6,2528.9 3306.5,-791.4 5302.4,-5364.88 8734.5,-5927.27"
         style="fill:#25e5d8;fill-opacity:1;fill-rule:evenodd;stroke:none"
         id="path56" />
      <g
         id="g58">
        <g
           id="g60"
           clip-path="url(#clipPath64)">
          <g
             id="g66"
             clip-path="url(#clipPath70)">
            <path
               d="m 26735,14050 c 194.8,46.5 501.9,-128.5 669.1,-201.9 1719,-754.7 427.9,-1693.3 1254.1,-2467.9 243.7,-228.5 581.5,-309.6 830.2,-533.6 311.9,-281 391.7,-753.4 844.2,-885.25 460.4,-134.12 571.6,579.55 1219,236.35 149.8,-79.4 284,-184.7 367,-335 285.1,-515.56 -604.9,-240.8 -470.1,-574.57 64.4,-159.59 1155,-92.52 1514.9,-305.55 301.5,-178.5 -37.7,-573.82 152.4,-844.89 232,-330.8 744.6,-724.71 609.8,-783.4 -189.9,-82.72 -1333.4,293.09 -1757.7,217.79 -533.3,-94.67 -348.5,-458.57 -712.9,-624.54 -318.7,-145.21 -321.8,332.17 -561.7,354.87 -361.3,34.17 -575.9,-737.13 -1455.4,-168.47 -411.1,265.87 -334.1,889.31 -784,1111.36 -661.6,326.48 -1142.3,-163.78 -1515.6,769.31 -155.5,388.85 416.6,160.31 487.5,394.58 52.6,173.79 -522.6,806.11 -581,786.61 -8.9,-3 15.8,-326.21 4.5,-365.13 -51.7,-178.15 -282.6,-216.11 -372.8,-373.44 -22.3,-38.91 -50.7,-301.25 -64.7,-296.58 -89.4,29.81 -170.9,144.39 -231.2,210.75 -452.4,497.13 -132.5,778.9 -354.3,1165.2 -245.6,427.9 -741.3,620.4 -960.2,1087 -502.9,1072.3 779.9,2091 1546.3,2612.2"
               style="fill:#12d0c3;fill-opacity:1;fill-rule:evenodd;stroke:none"
               id="path72" />
            <path
               d="m 34896.8,8776.21 c 49.2,-109.72 -141.7,-347.35 -199.2,-421.94 -304.5,-394.97 -757.2,-607.72 -1244.6,-675.42 -39.5,-5.48 -528.2,-35.54 -555.1,18.28 -1.9,3.8 7.8,-3.47 11.4,-5.71 87.3,-54.26 155.4,-149.25 204.5,-237.2 116,-207.93 185.2,-434.18 197.9,-672.37 34.9,-651.59 -246.7,-1446.14 -892,-1717.86"
               style="fill:none;stroke:#10b0a6;stroke-width:100;stroke-linecap:round;stroke-linejoin:round;stroke-miterlimit:10;stroke-dasharray:none;stroke-opacity:1"
               id="path74" />
            <path
               d="m 33860.3,9335.32 c 3.1,1.69 -26.5,-78.68 -31.1,-87.45 -34.1,-65.09 -73.9,-126.97 -117,-186.45 -124.3,-171.36 -264.4,-332.88 -415,-481.56 -364.6,-359.91 -843.7,-520.14 -1348.9,-511.17 -111.7,1.98 -228.2,32.57 -337.5,32.57 -1.2,0 31.7,-54.45 58.5,-112.19 36.6,-78.77 74.2,-157.56 107.1,-237.94 109.4,-267.47 182.7,-553.3 204.8,-841.7 18.9,-248.03 8.7,-501.11 -83.9,-734.64 -160,-403.45 -640.4,-780.56 -1074.8,-843.51"
               style="fill:none;stroke:#10b0a6;stroke-width:100;stroke-linecap:round;stroke-linejoin:round;stroke-miterlimit:10;stroke-dasharray:none;stroke-opacity:1"
               id="path76" />
            <path
               d="m 33004,10075.5 c 8.9,1.9 -39.9,-126.34 -43.6,-134.26 -41,-86.7 -89.7,-170.04 -142.3,-250.18 -139.7,-213.1 -304.6,-424.05 -499.2,-589.51 -325.8,-277.05 -723.3,-475.27 -1134.1,-590.04 -122.9,-34.32 -251.8,-74.43 -380.3,-78.95 -52.3,-1.85 -104.4,1.1 -155.9,10.57 -20.1,3.68 -59.8,32.92 -59.8,12.55 0,-65.53 109,-209.93 131.8,-276.19 77,-223.31 131.9,-460.67 154.9,-695.75 83.3,-850.99 -498,-1949.57 -1476,-1863.27"
               style="fill:none;stroke:#10b0a6;stroke-width:100;stroke-linecap:round;stroke-linejoin:round;stroke-miterlimit:10;stroke-dasharray:none;stroke-opacity:1"
               id="path78" />
            <path
               d="m 32089.1,11075.4 c 32.6,-218.7 -136.4,-501.3 -229.2,-685.9 -311.6,-620.03 -779.8,-1078.34 -1417,-1351.92 -145.3,-62.39 -761,-284.2 -915.7,-129.49 -9.7,9.69 20.3,-18.86 27.8,-30.34 12.1,-18.48 20.3,-39.27 27.7,-59.93 27.1,-75 43.5,-151.31 45.9,-231.24 6.9,-230.77 -33.8,-471.06 -105.4,-689.63 -216.9,-661.4 -714.3,-1531.77 -1441.1,-1732.59"
               style="fill:none;stroke:#10b0a6;stroke-width:100;stroke-linecap:round;stroke-linejoin:round;stroke-miterlimit:10;stroke-dasharray:none;stroke-opacity:1"
               id="path80" />
            <path
               d="m 30926.6,12067.3 c 164.8,-551.6 -230.1,-1340.5 -563.8,-1748 -326.1,-398.07 -765.3,-680.98 -1266.7,-797.85 -150.7,-35.14 -309.4,-50.58 -464.1,-42.74 -10.9,0.56 -225.6,33.45 -226,32.48 -12.3,-24.59 28.4,-160.31 27.3,-194.02 -6,-190.67 -56.5,-383.04 -112.8,-564.1 -225.7,-726.03 -769.7,-1512.45 -1470.5,-1855.99"
               style="fill:none;stroke:#10b0a6;stroke-width:100;stroke-linecap:round;stroke-linejoin:round;stroke-miterlimit:10;stroke-dasharray:none;stroke-opacity:1"
               id="path82" />
            <path
               d="m 29816.7,13047.6 c 117.1,-504.4 -224.8,-1342.8 -471.8,-1761.2 -273.1,-462.4 -713.6,-828.6 -1204.8,-1043.2 -162.6,-71 -380.3,-169.8 -563.6,-123 -3.4,0.8 -31.2,13.7 -33.4,11.5 -8.8,-8.8 0.6,-94.6 -1.2,-107.7 -18.3,-129.02 -69.8,-256.45 -120.1,-375.63 -155.1,-367.4 -359.6,-718.27 -626.5,-1015.81 -260.1,-289.88 -591.9,-576.53 -973.1,-688.89"
               style="fill:none;stroke:#10b0a6;stroke-width:100;stroke-linecap:round;stroke-linejoin:round;stroke-miterlimit:10;stroke-dasharray:none;stroke-opacity:1"
               id="path84" />
            <path
               d="m 28173.5,13395.9 c 338.5,-266 144.8,-1315.2 -18,-1626.9 -209.1,-400.3 -584.2,-761.8 -1020.6,-899.1 -88.4,-27.8 -387.8,19 -417.5,2.8 -5.8,-3.2 -1.5,-28.5 -1.8,-32.9 -7.2,-153.2 -90.6,-309.7 -157.7,-443.6 -165.7,-330.4 -384.6,-627.24 -657.9,-876.84 -261.9,-239.24 -632.1,-558.03 -1011.3,-564.05"
               style="fill:none;stroke:#10b0a6;stroke-width:100;stroke-linecap:round;stroke-linejoin:round;stroke-miterlimit:10;stroke-dasharray:none;stroke-opacity:1"
               id="path86" />
            <path
               d="m 27324.1,13524.3 c 273.9,-340.6 162.4,-1145.5 -34.2,-1486.8 -165.3,-287.1 -429.8,-487.9 -755.5,-552.5 -97.4,-19.3 -201.3,-18.5 -298.4,2.1 -11.9,2.6 -133.8,48.2 -137.7,42.9 -36.9,-49.2 -74.6,-244.4 -110.9,-316.6 -148.5,-295.5 -352.1,-564.3 -618.5,-763.2 -236.9,-176.9 -521.7,-291 -820.6,-254.1"
               style="fill:none;stroke:#10b0a6;stroke-width:100;stroke-linecap:round;stroke-linejoin:round;stroke-miterlimit:10;stroke-dasharray:none;stroke-opacity:1"
               id="path88" />
            <path
               d="m 35153.6,8333.04 c 42.1,-15.89 39.4,-173.7 40.3,-205.85 6.5,-216.19 -25.9,-455.14 -177.5,-620.6 -72.3,-78.94 -179.5,-140.1 -283.2,-166.91 -39.9,-10.32 -80.9,-13.3 -121.9,-14.69 -3.1,-0.11 -29.4,1.74 -29.4,-3.44 0,-111.5 60.3,-239.42 70,-354.13 40.9,-480.29 -44.6,-1134.47 -488.2,-1425.6"
               style="fill:none;stroke:#10b0a6;stroke-width:100;stroke-linecap:round;stroke-linejoin:round;stroke-miterlimit:10;stroke-dasharray:none;stroke-opacity:1"
               id="path90" />
          </g>
        </g>
      </g>
      <path
         d="m 36675.9,7182.67 c 0,0 -9856.3,-55.5 -12490.4,7756.03"
         style="fill:none;stroke:#10b0a5;stroke-width:150;stroke-linecap:round;stroke-linejoin:round;stroke-miterlimit:10;stroke-dasharray:none;stroke-opacity:1"
         id="path92" />
      <path
         d="m 26425.3,2449.86 c -323.5,-48.41 -451.4,200.1 -636.7,434.72 -100.8,127.54 -249.7,215.14 -336.6,353.22 -106.4,168.97 -126.8,381.28 -198.2,565.29 -96.5,248.91 -254.6,471.99 -335.2,726.97 -49.4,156.32 -19.5,648.95 108.7,768.97 20.2,18.89 75.1,-152.81 78.7,-162.97 34.5,-99 71.8,-198.92 123.9,-290.2 181.9,-318.8 366.9,-434.77 503.2,-805.53 97.1,-264.05 289.3,-368.76 458.5,-574.61 118.2,-143.85 188.2,-334.54 264.1,-502.73 60.5,-133.9 152.8,-308.04 115,-461.74 4.5,-10.97 6.5,-23.18 5.3,-35.83 -9.1,-96.28 47.9,-194.77 88,-279.83 96.5,-204.97 217.4,-359.1 354.1,-493.38 16.9,-9.83 33.6,-20.21 50.2,-31.19 16.6,-10.96 27.4,-27.4 31.6,-45.35 164.8,-147.42 348.4,-276.38 537.9,-434.54 72,-60.07 135.6,-130.05 196.5,-203.091 -27.4,119.291 -49.3,241.081 -102.7,352.981 -25.4,53.3 -97.2,174.66 -119.2,230.24 -12.1,30.6 -11.3,56.13 -7.2,73.62 -34.4,14.36 -66.5,31.37 -74.9,35.78 -153.2,81.03 -266.1,197.33 -313.3,366.52 -61.4,219.79 -7.2,467.28 -117.9,674.39 -132.7,248.04 -407.1,363.19 -510.2,633.18 -107,280.22 -69.3,596.99 -168.3,882.49 -75,216.41 -201.3,409.17 -234.9,639.69 -5.1,34.66 -44.5,204.72 2.6,225.44 36.5,16.08 136.4,-101.4 159,-122.17 168.6,-155.16 344.9,-287.38 525.7,-427.02 437.5,-337.93 385.4,-882.01 624,-1341.47 149.4,-287.8 441.8,-512.75 521.5,-832.09 62.3,-249.92 45.8,-685.53 -266.3,-752.33 14.4,-27.07 91,-171.88 114.8,-221.67 61.7,-129.25 86.3,-270.17 119,-407.479 28.7,-120.719 63.6,-238.762 149.3,-338.77 8.9,-10.383 14.4,-22.5 16.7,-35.051 26.3,-23.019 53.9,-44.519 83.1,-64.039 134,-89.621 285.5,-138.242 436.6,-189 26.9,-9.062 53.9,-18.179 80.7,-27.57 -112.7,110.34 -218.8,231.051 -297.9,401.258 -75,161.133 -101,338.841 -114,514.521 -5.1,68.64 11.7,168.49 -12.4,233.78 -14.4,38.82 5.4,82 44.3,96.37 v 0 c -80.1,62.95 -83.7,211.66 -67.3,305.81 55.6,318.37 242.4,509.42 82.1,840.74 -70.2,144.99 -169.3,270.89 -203.2,431.76 -44.1,208.93 1.3,422.01 -53.9,630.11 -32,120.49 -92.5,212.74 -174.3,305.47 -10.6,11.92 -136.8,154.86 -109.5,156.15 114.7,5.4 307.6,-160.72 404,-212.24 152.3,-81.32 303,-160.97 422.9,-288.32 268.1,-284.64 520.1,-994.49 360.7,-1360.74 -59.1,-135.76 -141.2,-261.61 -192,-400.91 -62.9,-172.41 -111.5,-619.56 -364.7,-481.01 17.2,-75.21 7.6,-174.65 12.9,-245.89 11.7,-157.73 33.1,-317.699 100.4,-462.359 75.9,-163.34 180.9,-274.871 289.8,-379.531 96.5,-92.7 196,-180.391 285.2,-288.301 139.7,-103.2071 257,-229.1681 378.8,-349.75 43.5,-43.059 87.5,-85.438 133.6,-125.559 -15.1,59.27 -25.3,119.41 -31.1,177.45 -7.9,80.3589 0.7,167.558125 -24.2,245.1988 -34.6,107.9022 -125.8,184.5622 -185.5,278.1332 -96,150.617 -138.4,360.617 -113,538.718 1.8,11.942 6.2,22.821 12.6,32.102 -46.4,42.859 -77.7,113.388 -94.2,169.558 -2.2,7.57 -4.2,15.22 -6,22.9 -43.9,187.33 86.1,380.11 72.1,576.77 -8.3,117.13 -39.9,235.47 -22.8,353.25 33.9,235.21 139.4,430.78 78.8,675.49 -44.8,180.98 -123.4,353.31 -179.8,530.91 -7.2,22.68 -53.5,145.14 -6.3,155.2 91.3,19.45 401.9,-329.1 463.2,-393.21 406.6,-424.76 173.1,-602.94 140.4,-1092.51 -13.5,-202.08 60.5,-397.53 46.5,-596.53 -12.5,-179.06 -159.8,-411.109 -359.6,-419.398 4,-11.102 5.4,-23.301 3.6,-35.782 -20.6,-144.359 13.1,-314.73 91,-436.82 66.5,-104.25 163.3,-192.801 201.8,-313.02 28.1,-87.5503 21.7,-185.5308 30.7,-276.152 11.7,-118.008 43.2,-246.957 105.6,-350.527 14.1,-7.571 28.4,-14.852 43.1,-21.801 31.1,-14.762 62.4,-28.57 93.9,-41.57 15.8,-1.059 31,-7.18 43.1,-17.25 240.8,-93.418 491.2,-142.489 739.4,-199.692 309.4,-71.297 615.4,-154.949 898.2,-340.168 34.6,-22.68 44.3,-69.2 21.6,-103.83 -22.6,-34.63 -69.2,-44.33 -103.8,-21.65 -267.3,175.06 -557.2,252.101 -849.7,319.48 -256.1,59.008 -514.1,110.711 -762.5,207.09 -221.3,-63.051 -421.6,-12.172 -618.5,67.379 -185.1,74.742 -366.6,176.133 -564.2,207.941 -104.9,16.891 -214,14.149 -318.3,-6.992 -3.1,-0.629 -39.8,-11.136 -56.1,-15.797 -4.5,-4.211 -9.6,-7.929 -15.3,-11.019 -25.5,-13.832 -55.6,-11.32 -78,3.957 -126.6,-85.52 -256.7,-176.008 -417.6,-174.109 -136.2,1.609 -254.7,102.058 -394.2,72.351 -186.5,-39.723 -310.8,-203.691 -519.8,-155.633 -167.6,38.563 -280.1,176.301 -422.6,261.891 -161.5,97.019 -349.7,137.922 -524.5,203.57 -250.8,94.211 -493.7,246.5315 -754.1,307.6916 -38,8.918 -261.7,34.4102 -197.5,111.5584 221.9,266.653 586.6,55.071 859.2,62.442 186.2,5.031 348.1,110.937 531,130.359 380.1,40.352 677.8,-120.602 1038.1,-189.148 329,-62.5825 915.7,74.25 900.3,-466.172 11.1,2.789 19.3,4.66 21.3,5.07 121.8,24.699 249.3,27.809 371.9,8.078 208.7,-33.59 401.2,-138.058 596.5,-216.957 99.7,-40.262 200.2,-73.723 305,-82.562 -122.9,76.55 -227.6,172.492 -328.9,272.742 -88.5,87.66 -174.2,178.679 -268.9,260.6482 -25.5,-2.0273 -51.4,9.0625 -67.3,31.4727 -13.2,18.7383 -26.8,36.77732 -40.8,54.2383 -1.3,0.9492 -2.6,1.8984 -4,2.8515 -132.8,94.3673 -283.4,145.2973 -433.8,195.8403 -156.9,52.707 -313.5,104.91 -454.1,194.679 -7.2,2.059 -14.1,5.219 -20.6,9.52 -196.3,129.879 -358.6,142.437 -529.9,150.289 -126.9,5.82 -258.3,9.07 -408.9,45.012 -109.1,26.027 -236.3,67.386 -328.6,134.308 -6.5,4.75 -21,18.59 -30.1,31.899 -40.3,-29.11 -91.5,-54.11 -110.6,-65.231 -228.7,-133.328 -449.4,13.801 -683.2,-43.879 -156.3,-38.578 -280.3,-123.91 -449.8,-112.051 -313.8,21.981 -560.9,359.223 -826.5,496.432 -324.5,167.65 -636.2,225.91 -876,525.73 -100.3,125.44 -194.6,256.1 -297.8,379.25 -7.1,8.53 -117.9,103.51 -117.4,106.16 3.9,20.34 37.1,-18.52 55.9,-27.17 47.8,-21.96 97.1,-40.48 145.5,-60.9 140.8,-59.41 268.7,-136.8 418.4,-173.63 227.4,-55.92 448,47.1 673.6,-7.84 231.8,-56.46 368.4,-250.19 558.2,-376.81 245.7,-163.96 442.6,-40.16 701.4,-15.72 372.7,35.18 753.5,-161.61 890.1,-509.189 2.4,-0.609 4.7,-1.352 7.1,-2.199 15.3,-5.621 27.7,-15.723 36.1,-28.282 76.5,-52.91 180.1,-83.878 268.5,-104.98 177.4,-42.328 326.7,-35.219 474.4,-46.5 49.1,-3.75 98,-9.309 147.5,-18.66 -13.7,16.539 -27.2,33.211 -40.7,49.961 -89.6,111.488 -176.6,226.429 -284.7,316.659 -217.2,181.27 -425.5,327.32 -608.6,502.16 -143.3,81.56 -297.3,119.06 -460.4,157.2 -161.8,37.83 -249.6,63.64 -265.4,68.67 -13.3,4.19 -23.3,10.25 -31,17.26 -148.5,-28.55 -281.6,-114.07 -448,-93.92 -200.5,24.28 -320.2,188.56 -481.1,289.56 -158.3,99.36 -345.5,127.96 -496.9,244.61 -242.1,186.6 -356.7,459.46 -514.7,710.99 -98,156.12 -237.9,263.17 -376.2,381.17 -30.2,25.75 -112.3,88.06 -81.4,136.44 119.4,186.8 528.6,-69.49 626.5,-168.36 230.6,-232.81 337.4,-231.73 580.5,-403.04 214,-150.86 405,-331.3 624.3,-475.39 207.5,-136.33 456.6,-277.17 594.9,-495.59 12.7,4.11 26.5,4.92 40.4,1.63 2.8,-0.65 5.4,-1.44 8,-2.38 2.6,-0.76 101.4,-29.83 254.3,-65.59 68.8,-16.09 136,-32.38 201.5,-51.44 -66.2,89.05 -126.6,188.05 -180.1,301.75 -46.7,99.16 -103.2,215.23 -103,328.17 z m 2066.4,-2860.872 c -0.2,5.383 -1,10.711 -2.5,15.973 -1.5,5.269 -3.6,10.48 -6.4,15.641 5.4,-10.09 8.3,-20.872 8.9,-31.614"
         style="fill:#10b0a6;fill-opacity:1;fill-rule:evenodd;stroke:none"
         id="path94" />
      <path
         d="m 5173.01,13034 c 295.86,139.4 489.83,-61.9 734.85,-233.3 133.18,-93.1 300.99,-134.2 423.96,-241.4 150.49,-131.3 231.12,-328.7 352.41,-484.4 164.05,-210.7 379.58,-378.9 530.09,-599.9 92.28,-135.5 205.37,-615.9 117.11,-767.7 -13.89,-23.9 -115.93,124.7 -122.25,133.4 -61.51,84.9 -126.01,169.9 -202.14,242.3 -265.94,253 -476.41,310.9 -713.64,626.8 -168.95,224.9 -383.09,270 -604.37,418.4 -154.63,103.8 -276.45,266.3 -397.55,405.6 -96.42,110.8 -234.9,251.1 -242.91,409.1 -7.52,9.2 -12.97,20.3 -15.45,32.8 -18.91,94.9 -101.88,172.8 -164.71,242.7 -151.38,168.6 -311.48,281.4 -481.12,370.7 -18.96,4.5 -37.97,9.7 -57.03,15.4 -19.03,5.8 -34.1,18.4 -43.31,34.4 -200.15,93.8 -413.1,164.5 -640.12,261.4 -86.22,36.9 -167.27,85.6 -246.59,138 60.52,-106.3 116.54,-216.7 199.87,-308.5 39.69,-43.7 143.34,-139.3 180.37,-186.2 20.38,-25.8 27.02,-50.5 28.09,-68.4 37.03,-3.9 72.74,-11 81.99,-12.8 170.09,-33.5 311.64,-112.4 405.54,-260.9 121.98,-192.8 141.28,-445.5 306.91,-612 198.36,-199.4 494.34,-230.7 670.71,-459.7 183.05,-237.6 238.1,-551.8 415.01,-796.8 134.1,-185.6 310.45,-333.9 408.98,-545.1 14.82,-31.7 101.5,-183.2 62.36,-216.6 -30.38,-25.9 -159.86,57.9 -187.45,71.3 -206.1,100.1 -413.01,176 -626.31,257.7 -516.19,197.8 -622.85,733.9 -983.43,1105.3 -225.87,232.7 -570.68,364 -738.8,647 -131.57,221.4 -241.06,643.4 38.6,797.1 -21.53,21.8 -136.57,138.4 -173.65,179.3 -96.24,106 -160.36,233.9 -231.16,356 -62.24,107.4 -129.66,210.4 -240.42,281.6 -11.5,7.3 -20.31,17.3 -26.14,28.7 -31.82,14.5 -64.39,27.1 -97.96,37.5 -154.11,47.2 -313.24,50.2 -472.49,55.4 -28.44,0.9 -56.88,1.9 -85.3,3.2 139.68,-73.3 276.06,-158.4 400.8,-298.6 118.1,-132.8 194.11,-295.5 257.1,-460 24.61,-64.3 37.27,-164.8 79.19,-220.4 24.93,-33 18.33,-80.1 -14.72,-105 v 0 c 94.78,-37.3 140.99,-178.7 152.32,-273.6 38.34,-320.9 -85.59,-557.6 163.27,-828.8 108.9,-118.6 240.03,-210.7 318.8,-355 102.29,-187.5 120.14,-404.6 232.83,-588 65.24,-106.2 149.81,-177.2 254.82,-242.4 13.51,-8.4 175.53,-109 149.78,-118.1 -108.36,-38.2 -340.83,65.4 -448.04,87.1 -169.2,34.1 -336.45,67 -487.94,154.5 -338.58,195.5 -784.13,802.8 -736.81,1199.5 17.54,147 59.96,291.1 68.57,439.2 10.65,183.2 -71.37,625.4 210.96,565.5 -38.07,67.1 -57.57,165.1 -83.11,231.8 -56.56,147.7 -123.07,294.8 -229.1,414 -119.71,134.6 -252.3,211.2 -386.74,280.1 -119.08,61 -239.63,116.4 -356.09,194.1 -163.49,58.6 -312.05,145.6 -463.34,226 -54.03,28.8 -108.41,56.7 -164.13,81.8 31.59,-52.4 58.61,-107 80.82,-161 30.75,-74.7 47.61,-160.6 93.75,-227.8 64.14,-93.4 173.56,-140.6 257.62,-213.1 135.31,-116.6 236.34,-305.5 263.16,-483.4 1.8,-12 0.67,-23.7 -2.83,-34.4 56.79,-27.7 107.06,-86.2 138.99,-135.3 4.31,-6.6 8.39,-13.4 12.33,-20.2 95.95,-166.8 26.91,-388.8 96.83,-573.1 41.65,-109.8 105.95,-214.1 123.53,-331.8 35.11,-235 -9.68,-452.7 118.73,-669.6 94.96,-160.5 219.87,-302.9 324.9,-456.8 13.41,-19.6 92.99,-123.6 50.68,-146.8 -81.85,-44.9 -479.5,199.6 -556.72,243.4 -511.58,289.8 -339.13,527.7 -448.67,1005.9 -45.21,197.5 -172.31,363.3 -216.15,558 -39.44,175.1 34.86,439.7 223.78,505.1 -7,9.5 -11.85,20.7 -13.73,33.2 -21.73,144.2 -103.08,297.7 -212.76,392.2 -93.66,80.7 -211.88,137.7 -283.34,241.8 -52.04,75.7 -74.13,171.4 -108.81,255.6 -45.15,109.7 -112.36,224.1 -201.918,305.4 -15.672,3.2 -31.512,6 -47.551,8.5 -34.019,5.1 -67.98,9.4 -101.871,12.8 -15.52,-3.6 -31.75,-2.1 -46.238,4.1 -257.481,20.2 -511.453,-4.8 -765.6409,-21.4 -316.8511,-20.8 -633.9411,-28.6 -958.0701,67.4 -39.692,11.8 -62.36,53.5 -50.602,93.2 11.77,39.7 53.539,62.4 93.223,50.6 306.348,-90.8 606.199,-81.1 905.6678,-61.6 262.2192,17.2 524.2302,41.9 789.8592,21 193.821,124.1 400.291,132.9 611.791,113.4 198.7,-18.4 401.7,-63.3 600.17,-36.9 105.32,14 209.02,48 302.78,98.2 2.82,1.5 34.97,22.2 49.17,31.3 3.13,5.3 6.98,10.4 11.55,15 20.45,20.6 49.92,26.8 75.83,18.6 96.67,118.3 195.21,242.4 349.9,286.9 130.88,37.6 273.22,-24.5 398.29,44 167.21,91.7 239.1,284.5 453.08,298.6 171.65,11.3 319.01,-88.3 480.06,-129.3 182.59,-46.4 374.6,-31.5 560.9,-44.1 267.36,-18.1 543.72,-94.1 810.78,-77.8 38.96,2.4 260.46,42.3 221.18,-50 -135.77,-319.2 -546,-221.5 -804.95,-307 -176.85,-58.3 -301.44,-206.3 -471.03,-277.5 -352.45,-148 -683.85,-79.5 -1048.65,-117.4 -333.06,-34.7 -855.64,-334.5 -996.28,187.5 -9.84,-5.9 -17.19,-10 -19,-11 -109.57,-58.7 -230.77,-98.3 -353.85,-114.7 -209.51,-27.8 -423.98,16.8 -633.73,36.2 -107.05,9.9 -212.94,13 -315.84,-8.6 139.71,-38 267.66,-99.7 393.45,-166.6 109.98,-58.5 218.22,-121.1 332.5,-172.3 23.85,9.3 51.88,6.1 73.49,-10.8 18.08,-14.2 36.32,-27.5 54.69,-40.2 1.54,-0.6 3.09,-1.1 4.64,-1.6 154.35,-52.2 313.28,-57.6 471.86,-62.8 165.39,-5.4 330.45,-10.3 490.92,-55.8 7.42,0 14.97,-1 22.45,-3.2 225.38,-68 384.41,-33.3 550.76,8.4 123.15,30.9 249.97,65.6 404.54,74.5 111.96,6.5 245.71,3.5 353.33,-34.1 7.62,-2.7 25.43,-11.8 37.98,-21.9 30.24,39.5 72.11,78.2 87.18,94.3 180.67,193.5 434.36,116 641.66,238.5 138.64,81.9 232.82,199.3 398.61,236.7 306.92,69.2 640.52,-182.7 934.34,-237.7 359.02,-67.3 674.27,-33.4 990.23,-251.6 132.19,-91.3 260.07,-189.3 394.29,-277.6 9.28,-6.1 142.67,-65.2 142.95,-67.9 2.14,-20.6 -40.82,7.1 -61.32,10 -52.07,7.3 -104.6,10.8 -156.85,16.5 -152.01,16.4 -296.74,53.7 -450.73,45.9 -233.88,-11.8 -415.51,-174 -647.32,-186.2 -238.27,-12.6 -424.8,133.6 -642.99,200.3 -282.52,86.4 -435.47,-88.8 -676.34,-186.7 -346.79,-140.9 -768.13,-61.9 -998.96,231.7 -2.43,-0.1 -4.89,-0.1 -7.36,0.1 -16.28,1 -31.03,7.1 -42.77,16.7 -88.44,28.6 -196.56,28.5 -287.31,23.3 -182.07,-10.5 -323.05,-60.2 -467.77,-91.9 -48.06,-10.6 -96.48,-19.3 -146.58,-24.6 17.83,-11.9 35.58,-24 53.29,-36.1 117.89,-81 234.28,-166.1 363.79,-221.4 260.18,-111.1 501.68,-191.1 727.29,-305.9 160.74,-36.9 318.98,-28.5 486.17,-18.2 165.81,10.3 257.33,10.9 273.99,10.6 13.87,-0.2 25.25,-3.1 34.58,-7.6 134.07,70.1 236.89,190.2 402.05,218.8 199.09,34.4 360.91,-88.5 544.08,-138.9 180.21,-49.7 367.69,-23.2 546.25,-91.4 285.59,-109.1 473.79,-337.4 697.44,-532.9 138.81,-121.3 303.6,-183.6 469.97,-256.9 36.3,-16 132.87,-52 117.18,-107.2 -60.57,-213.3 -526.23,-85.5 -648.45,-19 -287.78,156.7 -389.79,124.9 -671.84,219.1 -248.4,82.9 -483.19,200.8 -734.67,275.7 -237.93,70.9 -517.08,134.1 -712.34,303.6 -10.92,-7.6 -23.99,-12.4 -38.21,-13.2 -2.82,-0.2 -5.61,-0.2 -8.37,-0.1 -2.67,0 -105.64,-0.5 -262.36,-10.3 -70.51,-4.3 -139.55,-8.1 -207.82,-8.7 88.98,-66.2 175.34,-143.7 259.32,-237.1 73.24,-81.6 160.7,-176.5 193,-284.7 z m -2801.94,2145.6 c 1.73,-5.1 4.06,-10 7.01,-14.6 2.94,-4.6 6.5,-9 10.65,-13.1 -8.13,8.1 -14.02,17.6 -17.66,27.7"
         style="fill:#10b0a6;fill-opacity:1;fill-rule:evenodd;stroke:none"
         id="path96" />
      <path
         d="m 20179.8,8677.51 c -3.3,133.37 -2.6,297.69 1.9,492.96 l 5.3,246.77 c 2.6,101.53 4.4,183.79 5.3,246.77 0.4,21.97 -10.9,33.14 -33.9,33.5 -22.4,0.35 -33.8,-10.46 -34.2,-32.43 -1,-67.86 -3.3,-163.3 -6.6,-286.31 l -209.5,1.82 c 0.6,101.56 0.4,197.52 -0.6,287.88 0.1,10.26 -3.4,18.61 -10.6,25.07 -6.3,5.47 -14.1,8.28 -23.3,8.43 -9.3,0.14 -17.2,-2.42 -23.6,-7.69 -6.9,-6.24 -10.5,-14.49 -10.6,-24.74 2.2,-292.06 -2.4,-620.89 -14,-986.47 -0.2,-10.26 3.1,-18.61 9.8,-25.06 6.3,-5.47 14.1,-8.28 23.3,-8.43 9.3,-0.14 17.2,2.42 23.6,7.69 7.4,6.23 11.5,14.47 12.1,24.72 7,225.01 11.2,435.18 12.8,630.49 l 104.8,-0.91 104.7,-1.64 c -6.7,-270.92 -8.5,-481.37 -5.5,-631.34 0.6,-21.98 12.4,-33.16 35.4,-33.51 22.4,-0.36 33.6,10.46 33.4,32.43"
         style="fill:#ffffff;fill-opacity:1;fill-rule:nonzero;stroke:none"
         id="path98" />
      <path
         d="m 20452.4,8645.51 c 4.8,-12.2 14,-18.91 27.6,-20.15 l 207.9,-18.84 c 21.8,-1.99 33.8,8.45 35.9,31.3 2,22.37 -7.9,34.55 -29.8,36.53 l -173.6,15.74 c 10.4,147.61 27.4,345.62 50.9,594.02 l 176.5,-16 c 21.9,-1.98 33.9,8.45 36,31.31 0.8,9.24 -1.2,17.26 -5.9,24.07 -5.7,7.86 -13.6,12.26 -23.9,13.19 l -175.7,15.93 23.6,252.32 87.4,-8.66 87.6,-7.21 c 22.4,-2.03 34.6,8.39 36.7,31.24 0.8,9.24 -1.4,17.29 -6.6,24.14 -5.3,7.33 -13.2,11.49 -23.9,12.46 l -205,18.58 c -10.1,1.9 -19.1,0.5 -26.8,-4.19 -8.4,-5.13 -13,-13.28 -14,-24.47 l -23.1,-246.48 -23.8,-245.69 c -18,-193.49 -31.6,-357.48 -40.9,-491.96 -0.6,-6.32 0.4,-12.05 2.9,-17.18"
         style="fill:#ffffff;fill-opacity:1;fill-rule:nonzero;stroke:none"
         id="path100" />
      <path
         d="m 21208.6,8606.36 -47.9,6.76 c -37.7,5.42 -69.5,10.66 -95.4,15.71 10.3,65.12 23,143.43 38.4,234.93 l 39.7,234.71 c 32,191.21 55.9,348.34 71.7,471.39 2.9,21.79 -6.9,34.46 -29.6,38.01 -22.2,3.48 -34.7,-5.67 -37.7,-27.46 -16,-124.5 -40.8,-285.69 -74.3,-483.57 l -40.8,-241.23 c -15.6,-92.95 -28.4,-173.23 -38.5,-240.83 -3,-9.91 -2.6,-19.38 1.5,-28.41 4.4,-9.59 12.3,-15.77 23.7,-18.55 31.1,-6.85 68.9,-13.51 113.3,-19.99 l 113.1,-16.25 c 21.7,-3.4 34.3,6.23 37.9,28.9 3.5,22.19 -5.6,34.99 -27.3,38.39 l -47.8,7.49"
         style="fill:#ffffff;fill-opacity:1;fill-rule:nonzero;stroke:none"
         id="path102" />
      <path
         d="m 21757.8,8498.5 -47.4,9.71 c -37.2,7.73 -68.7,14.92 -94.2,21.56 14.2,64.36 31.8,141.74 52.8,232.12 l 54.1,231.81 c 43.7,188.86 77.3,344.22 100.7,466.06 4.3,21.56 -4.8,34.82 -27.2,39.77 -22,4.84 -35.1,-3.52 -39.3,-25.08 -23.7,-123.28 -58.4,-282.63 -104.1,-478.07 l -55.6,-238.24 c -21.2,-91.81 -39,-171.15 -53.3,-238.01 -3.6,-9.69 -3.7,-19.17 -0.3,-28.44 3.9,-9.84 11.4,-16.5 22.6,-19.98 30.6,-8.75 67.9,-17.73 111.8,-26.94 l 111.9,-23.21 c 21.5,-4.73 34.7,4.1 39.6,26.51 4.9,21.93 -3.4,35.27 -24.9,40.01 l -47.2,10.42"
         style="fill:#ffffff;fill-opacity:1;fill-rule:nonzero;stroke:none"
         id="path104" />
      <path
         d="m 22190.4,8392.03 c -30,14.02 -48.3,49.08 -54.9,105.19 -2,19.85 -2.7,42.85 -1.9,69.01 0.1,9.59 0.6,20.13 1.3,31.6 l 0.9,14.19 0.3,12.07 c 4.2,83.52 22.6,180.56 55.2,291.1 3.2,11.28 7.4,24.55 12.7,39.8 6.8,20.42 14,40.7 21.7,60.86 21.6,55.3 43.5,102.64 65.7,142.05 66.1,115.85 124.6,144.55 175.6,86.09 32,-50.57 43.2,-121.68 33.6,-213.34 -3.3,-33.55 -9.7,-71.81 -19.3,-114.78 -3.8,-15.64 -8.1,-33.47 -12.7,-53.48 l -6.2,-24.87 -6.8,-23.98 c -21.7,-86.21 -50,-167.26 -85,-243.14 l -2.1,-4.74 -2.5,-6.15 c -2.4,-4.9 -4.6,-9.34 -6.8,-13.31 -5.1,-11.22 -10.4,-21.67 -15.6,-31.35 -14.1,-26.49 -28.2,-48.89 -42.5,-67.2 -39.7,-52.75 -76.6,-71.3 -110.7,-55.62 z m 295.3,282.2 c 37.1,104.73 62.4,216.79 76.2,336.17 6.1,54.08 7.4,100.37 4,138.85 -4.4,52.97 -18,96.61 -40.8,130.91 l -3.2,4.72 -1.6,2.71 c -21.9,26.46 -48.4,42.51 -79.2,48.14 -29,5.1 -59.7,0.54 -92.1,-13.69 -40,-17.68 -76,-53.73 -108,-108.13 -11.7,-20.04 -23.9,-44.27 -36.4,-72.7 -4.7,-9.34 -10,-21.27 -16.2,-35.78 l -7,-17.04 -6.9,-16.33 c -47.4,-110.94 -80.9,-237.45 -100.5,-379.53 -4,-30.33 -6.9,-56.9 -8.7,-79.72 -2.4,-31.8 -2.6,-60.64 -0.8,-86.52 4,-67.06 20.9,-118.96 50.6,-155.72 70,-86.61 147.3,-75.1 231.9,34.53 30,38.23 59.1,86.85 87.4,145.86 10.9,22.79 21.3,46.01 31,69.66 7.8,19.08 14.6,36.96 20.3,53.61"
         style="fill:#ffffff;fill-opacity:1;fill-rule:nonzero;stroke:none"
         id="path106" />
      <path
         d="m 13092.1,5612.89 c -33.4,-6.52 -95.5,-10.64 -186.3,-12.36 -90.7,-1.73 -203.2,43.66 -337.2,136.15 -134.1,92.5 -235.9,232.84 -305.6,421.02 l -4.2,15.16 c -5.1,25.69 -1.2,51.34 11.6,76.94 15,32.27 41.4,52.08 79,59.44 24.9,4.85 50.1,1.1 75.6,-11.25 25.5,-12.35 43.9,-33.87 55.3,-64.55 41.2,-111.06 98,-205.08 170.4,-282.06 72.3,-76.99 144.1,-127.19 215.4,-150.61 33.3,-11.28 62.8,-14.41 88.5,-9.39 91.6,17.88 120,115.88 85.2,293.98 -23.2,119.02 -75.1,234.66 -155.7,346.93 -77.7,106.61 -188.3,201.9 -331.8,285.89 -211.8,119.54 -372.8,238.33 -482.9,356.38 -122.3,129.91 -195.5,256.94 -219.8,381.1 -17.9,91.62 -12.4,175.35 16.3,251.18 47.1,122.98 122.2,216.31 225.4,280 69.1,41.94 143.1,70.61 221.8,85.99 40.3,7.85 102.6,12.91 187.1,15.18 84.4,2.26 184.5,-26.64 300.2,-86.71 115.8,-60.07 209.5,-152.9 281.1,-278.47 5.7,-11.32 9.7,-22.54 11.9,-33.67 3.5,-17.99 1.6,-39.02 -5.7,-63.11 -7.3,-24.09 -24.9,-44.2 -52.9,-60.33 -10.4,-5.6 -21.2,-9.48 -32.4,-11.66 -53.9,-10.53 -95.1,9.42 -123.7,59.86 -62.3,105.16 -137.2,179.42 -224.8,222.77 -74.8,36.96 -140.8,49.83 -198.2,38.63 -9.4,-1.83 -32.4,-9.21 -69,-22.14 -36.6,-12.92 -49.7,-64.14 -39.3,-153.68 l 2.5,-12.84 c 27.9,-142.99 188.5,-298.74 481.9,-467.25 184.6,-103.51 331,-213.59 439.1,-330.27 146.4,-158.08 236.8,-324.88 271,-500.42 12.7,-65.07 17.1,-128.23 13,-189.46 -15.9,-196.01 -77.3,-343.55 -184.2,-442.64 -81.3,-75.42 -174.2,-123.33 -278.6,-143.73"
         style="fill:#ffffff;fill-opacity:1;fill-rule:nonzero;stroke:none"
         id="path108" />
      <path
         d="m 14509.2,5960.14 -15.6,-1.67 c -81.5,-8.74 -167.2,35.17 -256.9,131.72 -89.8,96.55 -172.4,259.24 -247.8,488.06 -65.4,200.94 -114.7,456.69 -148,767.24 l -13,134.16 c -5.2,81.05 16.9,150.76 66.4,209.14 49.5,58.38 115,91.94 196.5,100.68 81.9,5.27 152.1,-16.83 210.4,-66.29 58.4,-49.46 92,-114.96 100.7,-196.5 11.2,-128.67 22.4,-245.91 33.8,-351.74 18.7,-175.23 40.5,-333.03 65.2,-473.4 29.7,-162.65 59.3,-242.39 88.8,-239.23 26.9,2.88 46.8,90.78 59.9,263.72 13,172.93 11.2,440.12 -5.6,801.57 -0.9,33.25 8.8,61.05 29.2,83.42 20.4,22.37 45.8,35.18 76.2,38.43 32.1,3.44 61.2,-6.6 87.4,-30.11 21.5,-19.64 33.8,-44.65 37,-75.01 l 0.5,-3.9 c 21.9,-499.53 -1.7,-881.76 -70.7,-1146.67 -69,-264.92 -167.1,-409.45 -294.4,-433.62"
         style="fill:#ffffff;fill-opacity:1;fill-rule:nonzero;stroke:none"
         id="path110" />
      <path
         d="m 16014.1,6119.31 c -62.8,-1.71 -122.7,17.6 -179.6,57.95 -57,40.34 -93.5,100.44 -109.7,180.29 -3.1,19.99 -8.8,66.96 -16.9,140.92 -2,8.68 -6.1,46.97 -12.3,114.87 -28.5,277.63 -57.1,494.6 -85.8,650.92 -50.1,270.06 -112.3,408.01 -186.7,413.84 -58.5,1.9 -106.4,23.28 -143.7,64.16 -37.4,40.88 -64.3,94.69 -81,161.44 -5,21.68 -7.7,43.42 -8.3,65.23 -1.5,54.07 14.9,109.93 49.1,167.59 50,85.15 143.5,129.58 280.4,133.3 68.1,1.86 136.4,-15.49 205,-52.02 68.7,-36.53 131.2,-98.11 187.7,-184.72 56.4,-86.61 102.4,-180.71 137.9,-282.29 35.5,-101.58 63.2,-196.17 83,-283.78 45.4,418.4 124.3,629.14 236.8,632.2 52.4,-2.07 98.6,-32.67 138.6,-91.8 68.2,-101.12 126.3,-264.06 174.3,-488.79 20,-91.97 38.8,-190.95 56.5,-296.94 3.1,14.92 6.5,35.08 10.2,60.49 58.2,362.9 126.7,636.19 205.5,819.86 28.1,58.37 64.4,101.69 109,129.95 30.9,19.17 62.1,29.18 93.5,30.04 13,0.35 34.5,-2.99 64.4,-10.03 29.8,-7.04 60.8,-39.8 93,-98.27 45.3,-93.9 75.9,-216.13 91.8,-366.68 15.9,-150.55 26.5,-310.85 32,-480.88 6.1,-158.68 15.9,-310.27 29.4,-454.77 13.6,-144.51 39.6,-267.3 78.1,-368.36 9.4,-24.18 14.4,-47.61 15,-70.28 2.3,-84.6 -37.5,-144.59 -119.4,-179.98 -24.2,-9.39 -47.6,-14.39 -70.3,-15.01 -26.2,-0.71 -57.4,6.73 -93.6,22.33 -36.2,15.6 -65,47.98 -86.4,97.14 -46.1,121.81 -78.7,271.68 -98,449.64 -19.2,177.95 -33.3,352.33 -42.4,523.15 -4.8,82.77 -9.9,158.56 -15.3,227.36 -59.9,-269.56 -108.8,-541 -146.7,-814.33 -11.9,-78.87 -34.3,-135.77 -67.4,-170.71 -21.2,-21.52 -43.2,-32.59 -65.9,-33.21 -13.9,-0.38 -33.5,5.63 -58.7,18.04 -25.2,12.4 -48.5,58.9 -69.9,139.48 -24.6,100.57 -68.6,307.09 -132.1,619.55 -73.7,367.17 -115,554.99 -123.9,563.47 -6.8,-8.91 -21.6,-297.32 -44.6,-865.22 -8.6,-198.35 -12.7,-303.19 -12.4,-314.53 -3.4,-100.46 -8.9,-183.52 -16.8,-249.19 l 0.4,-11.77 c 1.9,-70.64 -18.4,-134.03 -61,-190.17 -42.5,-56.14 -102,-91.36 -178.4,-105.66 -14.8,-2.15 -29.6,-3.42 -44.4,-3.82"
         style="fill:#ffffff;fill-opacity:1;fill-rule:nonzero;stroke:none"
         id="path112" />
      <path
         d="m 18694.1,6094.44 c -62.6,4.92 -120.1,30.44 -172.5,76.57 -52.4,46.12 -82.4,109.74 -90,190.85 -1,20.21 -1.7,67.52 -1.9,141.92 -1.1,8.84 -1.1,47.34 -0.2,115.53 1,279.08 -4.6,497.86 -16.6,656.33 -21.4,273.84 -68.7,417.58 -142,431.22 -58,8.06 -103.4,34.38 -136.2,78.97 -32.8,44.58 -54,100.94 -63.5,169.08 -2.6,22.08 -3.1,44 -1.4,65.74 4.2,53.92 26.4,107.75 66.5,161.48 58.8,79.39 156.4,113.72 293,102.98 67.8,-5.34 133.9,-29.79 198.3,-73.36 64.4,-43.56 120.1,-111.39 167.1,-203.47 47.1,-92.09 82.9,-190.51 107.4,-295.27 24.6,-104.76 42.1,-201.74 52.6,-290.95 89.2,411.29 190,612.52 302.2,603.7 51.9,-7.59 94.6,-42.89 128.1,-105.91 57.2,-107.76 97.8,-275.91 121.8,-504.45 10.2,-93.56 18.5,-193.98 24.9,-301.25 4.7,14.51 10.2,34.21 16.5,59.09 96.1,354.74 193.1,619.28 290.8,793.62 34.1,55.07 74.8,94.31 122.1,117.72 32.8,15.8 64.8,22.47 96.1,20.01 13.1,-1.03 34.1,-6.62 63,-16.77 29,-10.15 56.4,-46 82.1,-107.53 35.2,-98.15 52.7,-222.92 52.6,-374.31 0,-151.39 -6.3,-311.92 -18.8,-481.58 -10.7,-158.43 -16.9,-310.21 -18.7,-455.34 -1.8,-145.13 11.1,-269.97 38.8,-374.54 6.8,-25.03 9.3,-48.86 7.5,-71.47 -6.6,-84.37 -52.6,-139.83 -137.8,-166.38 -25,-6.78 -48.9,-9.28 -71.5,-7.5 -26.1,2.05 -56.3,12.74 -90.6,32.07 -34.4,19.33 -59.6,54.56 -75.7,105.71 -33,125.99 -49.7,278.47 -50.1,457.46 -0.3,178.99 4,353.89 13.1,524.7 3.9,82.83 6.8,158.74 8.7,227.72 -88,-261.74 -165.2,-526.51 -231.8,-794.32 -20.1,-77.18 -48.4,-131.39 -85,-162.65 -23.4,-19.16 -46.4,-27.85 -69,-26.08 -13.9,1.1 -32.7,9.14 -56.5,24.14 -23.8,14.99 -42,63.69 -54.8,146.08 -13.8,102.6 -35.8,312.6 -66,630.02 -34.5,372.89 -55.8,564.02 -63.8,573.4 -7.7,-8.15 -52.9,-293.38 -135.6,-855.7 -29.4,-196.34 -44.6,-300.16 -45.5,-311.46 -13.9,-99.55 -28.3,-181.55 -42.9,-246.03 l -1,-11.74 c -5.5,-70.45 -32.4,-131.35 -80.6,-182.69 -48.3,-51.34 -111.1,-80.09 -188.6,-86.24 -14.9,-0.58 -29.8,-0.29 -44.6,0.88"
         style="fill:#ffffff;fill-opacity:1;fill-rule:nonzero;stroke:none"
         id="path114" />
      <path
         d="m 21135,5776.18 c -129.6,23.77 -233,88.85 -310.1,195.25 -77.2,106.4 -121.3,250.2 -132.4,431.41 -8.5,142.58 1.2,289.81 29.1,441.69 7.5,41.19 25.7,121.01 54.6,239.45 28.8,118.45 87.7,259.54 176.7,423.27 89,163.73 190.4,287.05 304,369.98 93.2,68.06 189.2,93.03 287.8,74.93 20.6,-3.77 41.8,-9.43 63.5,-16.95 110.8,-48.71 184.7,-127.01 221.6,-234.91 38.7,-117.97 44.4,-251.6 17,-400.91 -22.9,-124.43 -63.5,-249.35 -122,-374.78 -58.5,-125.42 -130.1,-235.57 -214.9,-330.44 -84.8,-94.87 -172.2,-155.35 -262.2,-181.43 -8.4,-94.25 -8.1,-177.23 0.9,-248.96 14.1,-121.44 53.8,-188.14 119,-200.1 24,-4.41 60.2,0.49 108.5,14.7 48.3,14.2 100.8,72.41 157.7,174.62 10.7,19.34 25.9,32.07 45.6,38.2 12.3,3.96 24.8,4.76 37.7,2.4 30.1,-5.51 49.5,-22.82 58.3,-51.94 4,-12.26 4.8,-24.82 2.4,-37.69 -1.2,-6.87 -3.4,-14 -6.5,-21.41 -46.2,-87.33 -117.1,-161.7 -212.6,-223.12 -130.6,-83.37 -271.8,-111.12 -423.7,-83.26 z m 134.3,812.22 c 61.1,42.9 124.7,112.83 190.8,209.8 66.2,96.97 123.5,198.21 172.2,303.71 42.6,92.4 70,171.21 81.9,236.42 13.6,73.8 2.3,114.01 -33.7,120.62 -8.6,1.57 -18.9,1.24 -30.8,-1.01 -52.6,-16.07 -104.1,-68.06 -154.4,-155.96 -50.2,-87.9 -95.1,-195.65 -134.4,-323.25 -33.2,-108.34 -60.3,-219.57 -81.2,-333.7 l -10.4,-56.63"
         style="fill:#ffffff;fill-opacity:1;fill-rule:nonzero;stroke:none"
         id="path116" />
      <path
         d="m 22478,5513.15 c -56.2,18.88 -104.7,55.39 -145.4,109.55 -40.7,54.15 -56.3,121.5 -46.8,202.04 34.2,244.36 83.9,500.97 149.3,769.83 85.7,348.54 171,660.4 256,935.56 25.8,76.92 72.6,133.45 140.4,169.59 67.8,36.14 140.9,43.37 219.2,21.69 68.6,-23.03 121.1,-62.73 157.4,-119.08 36.3,-56.36 51.1,-119.29 44.3,-188.8 183.8,-0.92 352.6,-27.2 506.4,-78.82 113.3,-38.03 209.5,-88.71 288.5,-152.05 79.1,-63.33 120.2,-136.94 123.3,-220.82 0.5,-23.17 -3.1,-46.34 -10.9,-69.5 -15.5,-46.31 -53.1,-99.28 -112.7,-158.89 -59.5,-59.6 -169.9,-123.8 -331,-192.58 -161.1,-68.79 -375,-132.98 -641.6,-192.58 l 71.9,-65.53 c 73.8,-65.26 143,-134.51 207.7,-207.75 132.1,-152 171.4,-307.82 117.8,-467.45 -6.9,-20.68 -15.2,-41.35 -24.9,-62.02 -16.6,-30.32 -43.5,-48.47 -80.4,-54.46 -30.4,-5.46 -57.1,-4.3 -80.3,3.47 -38.1,12.77 -51.5,35.69 -40.4,68.78 l 1.7,4.96 c 6.6,14.33 12.3,28.53 17,42.59 22.5,66.99 23.7,135.13 3.7,204.42 -20,69.29 -56.2,137.57 -108.6,204.86 -52.4,67.28 -106,128.98 -160.8,185.1 l -49.6,53.9 c -38.9,-176.49 -69.8,-347.89 -92.5,-514.2 -3,-17.38 -7.3,-34.34 -12.9,-50.88 -18.9,-56.24 -55.4,-104.93 -109.7,-146.06 -54.3,-41.14 -121.9,-57.35 -202.7,-48.63 -18.2,3.34 -36,7.93 -53.4,13.76 z m 523.8,976.81 c 427.3,96.8 667.6,224.6 720.9,383.4 11.1,33.09 11.6,66.06 1.4,98.91 -21.9,74.53 -80.1,136.86 -174.6,186.99 -31.2,16.89 -65,31.44 -101.4,43.65 -71.1,23.87 -151.3,38.38 -240.7,43.53 -69.7,-232.43 -138.2,-484.59 -205.6,-756.48"
         style="fill:#ffffff;fill-opacity:1;fill-rule:nonzero;stroke:none"
         id="path118" />
      <path
         d="m 14336.8,5255.49 0.4,-70.57 c 0.5,-56.87 0.4,-104.04 -0.4,-141.53 -1,-49.82 -3.7,-98.5 -8.3,-146.06 -0.7,-7.55 -1.7,-14.21 -3,-20 -1.7,-8.05 -3.9,-14.97 -6.4,-20.76 -7,-15.35 -17.7,-23.02 -32.1,-23.02 -5.5,0.25 -12.6,3.4 -21.1,9.44 l -5.3,3.77 -4.9,3.77 c -4,2.77 -7,4.78 -9.1,6.04 -10,5.79 -17.9,3.65 -23.7,-6.41 -6.1,-10.07 -4.2,-17.99 5.6,-23.78 l 12.1,-7.17 11.3,-7.17 c 8.6,-5.03 16,-8.56 22.3,-10.57 16.6,-5.79 33.3,-3.77 50.2,6.04 17.1,9.81 28.8,29.44 35.1,58.87 2.3,10.32 4,22.65 5.3,36.99 0.5,4.53 1,10.44 1.5,17.74 l 0.4,7.92 0.3,7.55 c 4.6,53.85 6.7,118.76 6.4,194.74 l -1.1,97.75 c -0.5,42.78 -0.7,75.23 -0.7,97.37 0,11.33 -6,16.99 -17.8,16.99 -11.8,0 -17.7,-5.66 -17.7,-16.99 l 0.7,-70.95"
         style="fill:#ffffff;fill-opacity:1;fill-rule:nonzero;stroke:none"
         id="path120" />
      <path
         d="m 14705.4,5320.41 c 0,5.53 -1.8,9.81 -5.6,12.83 -3.3,3.02 -7.3,4.53 -12.1,4.53 -4.8,0 -8.8,-1.51 -12.1,-4.53 -3.7,-3.02 -5.6,-7.3 -5.6,-12.83 l 0.4,-53.6 0.7,-53.97 c 0.5,-43.77 0.5,-79.63 0,-107.56 -0.5,-24.65 -1,-43.52 -1.5,-56.61 -0.8,-21.13 -1.9,-40.25 -3.4,-57.36 -4,-42.52 -11.3,-79.64 -21.9,-111.34 -1.7,-5.28 -3.5,-9.94 -5.3,-13.96 -2.5,-5.54 -5,-10.44 -7.5,-14.72 -7.3,-10.82 -15.4,-16.73 -24.2,-17.74 -18.6,-2.26 -32.4,10.19 -41.5,37.36 -3,9.31 -5.5,20.64 -7.5,33.97 -0.5,4.53 -1.2,9.81 -1.9,15.85 l -0.8,6.79 -0.7,6.04 c -7.3,57.12 -11.1,121.53 -11.3,193.24 0,28.43 0.5,60.63 1.5,96.61 l 1.5,48.69 1.5,48.31 c 0.2,5.53 -1.4,9.81 -4.9,12.83 -3.3,2.77 -7.3,4.15 -12.1,4.15 -4.8,0 -8.8,-1.38 -12.1,-4.15 -3.8,-3.02 -5.8,-7.3 -6,-12.83 l -1.9,-53.6 -1.9,-53.97 c -1.3,-40.76 -1.8,-76.73 -1.5,-107.93 0.7,-80.77 6.9,-152.35 18.5,-214.75 4,-22.64 10.1,-40.88 18.1,-54.72 10.6,-18.37 24.9,-30.07 43,-35.1 12.3,-3.52 24.6,-3.02 36.6,1.51 11.6,4.53 21.7,11.82 30.2,21.89 20.4,24.91 34.2,60.89 41.5,107.94 2.8,17.11 4.8,37.23 6.1,60.38 0.5,7.8 1,17.49 1.5,29.06 l 0.7,13.97 0.8,13.58 c 1.8,36.99 2.4,82.28 1.9,135.87 l -0.8,67.93 -0.4,67.94"
         style="fill:#ffffff;fill-opacity:1;fill-rule:nonzero;stroke:none"
         id="path122" />
      <path
         d="m 14886.1,5164.16 c -7.3,23.15 -10.4,45.67 -9.4,67.56 1.2,26.41 8.7,47.42 22.2,63.02 10.1,11.32 20,16.1 29.9,14.34 8.5,-1.25 15.6,-7.17 21.1,-17.73 5.3,-9.82 7.4,-20.51 6.4,-32.08 -1.2,-12.84 -6.1,-22.77 -14.7,-29.82 -4.3,-3.27 -6.3,-7.17 -6,-11.7 0,-4.28 1.7,-8.05 5.2,-11.32 8.4,-8.3 16.9,-8.93 25.7,-1.89 10.1,8.3 17.2,19.5 21.5,33.59 4.1,13.08 5.1,26.92 3,41.52 -1.7,14.59 -6.4,27.55 -13.9,38.87 -8.1,12.08 -18.1,20.5 -30.2,25.29 -12.3,4.52 -26.6,3.14 -42.7,-4.16 -13.8,-6.29 -25.5,-14.84 -35.1,-25.66 -11,-12.83 -18.7,-29.56 -23,-50.2 -3.3,-16.1 -4.4,-34.47 -3.4,-55.1 1.5,-35.72 11.3,-69.57 29.5,-101.52 7.5,-13.08 20.5,-29.81 38.8,-50.19 l 11,-11.7 10.5,-12.08 c 7.6,-9.06 13.9,-17.49 18.9,-25.29 10.8,-17.11 17.6,-37.11 20.4,-60.01 2.5,-21.88 0.9,-42.89 -4.9,-63.02 -3.5,-12.58 -10.2,-23.78 -20,-33.59 -10.6,-10.32 -22.2,-15.98 -34.7,-16.99 -12.4,-1.25 -21.8,6.55 -28.3,23.4 -2.6,6.04 -4.6,13.09 -6.1,21.14 -1.2,6.29 -1.9,12.33 -1.9,18.11 -0.5,11.33 -6.6,16.99 -18.5,16.99 -11.8,0 -17.5,-5.66 -17,-16.99 1.3,-29.43 10.1,-54.47 26.5,-75.1 19.4,-23.9 42.9,-29.81 70.5,-17.74 31.8,13.84 52.8,38.25 63.1,73.22 8.8,29.44 9.2,62.52 1.1,99.26 -6,26.67 -24.7,58.37 -55.8,95.1 l -17.8,21.14 c -6.5,8.05 -12.1,15.47 -16.6,22.27 -11.8,16.85 -20.2,33.21 -25.3,49.06"
         style="fill:#ffffff;fill-opacity:1;fill-rule:nonzero;stroke:none"
         id="path124" />
      <path
         d="m 15258.1,4815.06 c 0,54.34 -0.5,135.61 -1.5,243.8 l -1.1,121.91 -0.8,122.28 29.5,-1.14 29.4,-0.75 c 11.6,0 17.4,5.91 17.4,17.74 0,11.57 -5.8,17.48 -17.4,17.73 l -39.2,0.76 -39.7,1.13 c -30.9,0.76 -57.1,-0.12 -78.5,-2.64 -5.3,-0.5 -9.5,-2.77 -12.8,-6.79 -2.8,-3.53 -4.1,-7.68 -4.1,-12.46 0,-4.78 1.3,-8.68 4.1,-11.7 3,-3.27 7.3,-4.65 12.8,-4.15 17.9,2.01 39,3.02 63.4,3.02 l 0.4,-122.28 1.2,-122.28 c 0.9,-108.19 1.5,-189.58 1.5,-244.18 0,-11.33 5.9,-16.99 17.7,-16.99 11.8,0 17.7,5.66 17.7,16.99"
         style="fill:#ffffff;fill-opacity:1;fill-rule:nonzero;stroke:none"
         id="path126" />
      <path
         d="m 15722.1,4815.06 c -2,74.47 -3.2,158.89 -3.7,253.24 l -0.8,126.43 v 126.43 c 0,5.54 -1.8,9.81 -5.3,12.83 -3.3,3.02 -7.3,4.53 -12.1,4.53 -4.8,0 -8.8,-1.51 -12.1,-4.53 -3.7,-3.02 -5.6,-7.29 -5.6,-12.83 v -126.43 l 0.4,-126.43 c 0.5,-94.35 1.9,-178.77 4.1,-253.24 0,-5.29 1.9,-9.56 5.7,-12.83 3.5,-2.77 7.7,-4.16 12.4,-4.16 4.8,0 8.7,1.39 11.7,4.16 3.8,3.27 5.6,7.54 5.3,12.83"
         style="fill:#ffffff;fill-opacity:1;fill-rule:nonzero;stroke:none"
         id="path128" />
      <path
         d="m 15959.8,5004.52 17.3,-63.79 c 14.4,-53.08 26.3,-95.48 35.9,-127.18 1.3,-8.56 6.5,-13.21 15.8,-13.97 9.1,-0.75 15,2.77 17.8,10.57 1.2,2.77 1.6,5.66 1.1,8.68 v 506.86 c 0,11.32 -5.8,16.98 -17.3,16.98 -11.9,0 -17.8,-5.66 -17.8,-16.98 v -381.18 l -16.2,60.01 -16.2,59.63 c -8.6,30.44 -22.4,74.6 -41.6,132.47 l -21.5,66.04 c -8,24.41 -14.8,46.42 -20.3,66.05 -0.6,3.02 -1.8,5.66 -3.8,7.92 l -0.8,0.76 -0.4,0.75 c -5.2,5.04 -11.7,6.04 -19.2,3.02 -8.1,-3.02 -11.7,-8.55 -10.9,-16.6 -3.8,-67.68 -5.1,-152.48 -3.8,-254.38 l 2.2,-127.56 c 0.8,-51.33 1.2,-93.85 1.2,-127.56 0,-11.33 5.9,-16.99 17.7,-16.99 11.8,0 17.8,5.66 17.8,16.99 0,28.93 -0.4,62.77 -1.2,101.52 l -1.5,101.52 c -1.5,84.54 -1.8,152.35 -0.7,203.43 l 12.8,-38.12 12.4,-38.5 c 9.6,-29.18 17.5,-54.85 23.8,-76.99 l 17.4,-63.4"
         style="fill:#ffffff;fill-opacity:1;fill-rule:nonzero;stroke:none"
         id="path130" />
      <path
         d="m 16518.1,4815.06 c 0,54.34 -0.5,135.61 -1.5,243.8 l -1.1,121.91 -0.8,122.28 29.5,-1.14 29.4,-0.75 c 11.6,0 17.3,5.91 17.3,17.74 0,11.57 -5.7,17.48 -17.3,17.73 l -39.3,0.76 -39.6,1.13 c -30.9,0.76 -57.1,-0.12 -78.5,-2.64 -5.3,-0.5 -9.5,-2.77 -12.8,-6.79 -2.8,-3.53 -4.2,-7.68 -4.2,-12.46 0,-4.78 1.4,-8.68 4.2,-11.7 3,-3.27 7.3,-4.65 12.8,-4.15 17.9,2.01 39,3.02 63.4,3.02 l 0.4,-122.28 1.1,-122.28 c 1,-108.19 1.5,-189.58 1.5,-244.18 0,-11.33 6,-16.99 17.8,-16.99 11.8,0 17.7,5.66 17.7,16.99"
         style="fill:#ffffff;fill-opacity:1;fill-rule:nonzero;stroke:none"
         id="path132" />
      <path
         d="m 16764.4,4815.06 c -2,74.47 -3.2,158.89 -3.7,253.24 l -0.8,126.43 v 126.43 c 0,5.54 -1.7,9.81 -5.3,12.83 -3.2,3.02 -7.3,4.53 -12,4.53 -4.8,0 -8.8,-1.51 -12.1,-4.53 -3.8,-3.02 -5.7,-7.29 -5.7,-12.83 v -126.43 l 0.4,-126.43 c 0.5,-94.35 1.9,-178.77 4.2,-253.24 0,-5.29 1.8,-9.56 5.6,-12.83 3.5,-2.77 7.7,-4.16 12.5,-4.16 4.8,0 8.7,1.39 11.7,4.16 3.7,3.27 5.5,7.54 5.2,12.83"
         style="fill:#ffffff;fill-opacity:1;fill-rule:nonzero;stroke:none"
         id="path134" />
      <path
         d="m 17142.1,4815.81 c -6,65.17 -9.2,150.21 -9.4,255.13 v 127.56 c -0.3,49.07 -1.1,91.59 -2.6,127.57 0.5,3.02 -0.2,6.04 -1.9,9.05 l -0.8,1.51 c -1.5,2.52 -3.8,4.53 -6.8,6.04 -6.3,3.53 -12.2,3.53 -17.7,0 -3.5,-2.01 -5.9,-4.9 -7.2,-8.68 -6,-10.56 -12.3,-23.52 -18.9,-38.87 l -8.7,-19.63 -8.2,-20 -7.6,-17.36 -7.9,-17.36 c -7.1,-15.1 -12.2,-26.67 -15.5,-34.72 -6.8,8.05 -14.2,19.75 -22.3,35.1 l -4.9,9.06 -4.5,9.05 c -3.5,6.8 -6.3,11.83 -8.3,15.1 -19.1,33.46 -37.7,60.26 -55.9,80.39 -1,1.51 -2.2,2.77 -3.7,3.77 -6.3,5.79 -13,6.29 -20,1.51 -5.8,-3.02 -8.7,-8.05 -8.7,-15.1 -0.8,-36.98 -0.9,-79.5 -0.4,-127.56 l 0.4,-63.4 1.1,-63.79 c 1.3,-108.19 0.9,-193.23 -1.1,-255.12 -0.5,-11.33 5.1,-16.99 17,-16.99 11.8,0 17.8,5.66 18.1,16.99 2,59.38 2.5,135.99 1.5,229.84 l -1.5,114.73 c -0.5,44.53 -0.6,82.78 -0.4,114.73 5.3,-7.8 11.1,-16.98 17.4,-27.55 l 16.6,-28.68 c 1,-2.01 2.7,-5.16 5.3,-9.44 l 2.6,-4.9 3,-5.66 c 5.1,-8.56 9.6,-15.98 13.6,-22.27 11.8,-17.61 23,-29.06 33.6,-34.35 7.5,-4.27 14.5,-3.27 20.7,3.02 2.3,2.02 4,4.53 5,7.55 4.5,12.33 10.4,26.67 17.7,43.03 l 9.8,21.51 9.8,21.13 6.4,14.35 c 0.3,-26.93 0.4,-63.28 0.4,-109.08 v -54.34 l 0.4,-54.73 c 0.7,-85.79 3.9,-158.51 9.4,-218.14 0.5,-5.28 2.8,-9.43 6.8,-12.45 3.5,-2.77 7.7,-4.15 12.5,-4.15 4.8,0 8.6,1.38 11.7,4.15 3.5,3.02 4.9,7.17 4.1,12.45"
         style="fill:#ffffff;fill-opacity:1;fill-rule:nonzero;stroke:none"
         id="path136" />
      <path
         d="m 17276.4,4807.13 c 3,-6.04 8,-9.06 15.1,-9.06 h 107.5 c 11.4,0 17,5.92 17,17.74 0,11.58 -5.6,17.36 -17,17.36 h -89.8 c -1.5,76.24 -2,178.64 -1.5,307.21 h 91.3 c 11.4,0 17,5.92 17,17.74 0,4.78 -1.4,8.81 -4.1,12.08 -3.3,3.77 -7.6,5.66 -12.9,5.66 h -90.9 l 0.3,130.58 45.3,-0.38 45.3,0.38 c 11.6,0 17.4,5.91 17.4,17.74 0,4.78 -1.5,8.81 -4.5,12.08 -3.1,3.52 -7.3,5.28 -12.9,5.28 h -106 c -5.3,0.5 -9.8,-0.63 -13.6,-3.4 -4,-3.02 -6,-7.42 -6,-13.21 l -0.4,-127.56 -0.8,-127.19 c -0.2,-100.13 0.4,-184.92 1.9,-254.37 0,-3.27 0.8,-6.16 2.3,-8.68"
         style="fill:#ffffff;fill-opacity:1;fill-rule:nonzero;stroke:none"
         id="path138" />
      <path
         d="m 17899.3,5140.01 c 11.3,0 16.9,5.91 16.9,17.73 0,11.58 -5.6,17.36 -16.9,17.36 h -91 l 0.4,130.59 h 90.6 c 11.5,0 17.3,5.91 17.3,17.74 0,4.78 -1.5,8.8 -4.5,12.07 -3,3.78 -7.3,5.66 -12.8,5.66 l -52.9,-0.37 -53.2,0.37 c -5.3,0.51 -9.8,-0.63 -13.6,-3.39 -4,-3.27 -6,-7.8 -6,-13.59 l -0.4,-127.19 -0.8,-127.18 c -0.2,-100.14 0.4,-185.06 1.9,-254.75 0.3,-5.29 2.2,-9.56 5.7,-12.83 3.5,-2.77 7.7,-4.16 12.4,-4.16 4.8,0 8.8,1.39 12.1,4.16 3.5,3.27 5.2,7.54 4.9,12.83 -1.5,79 -2,187.32 -1.5,324.95 h 91.4"
         style="fill:#ffffff;fill-opacity:1;fill-rule:nonzero;stroke:none"
         id="path140" />
      <path
         d="m 18159.5,4835.81 c -16.8,2.77 -30.8,17.62 -41.8,44.54 -3.8,9.56 -7.3,20.88 -10.6,33.97 -1.3,4.78 -2.5,10.06 -3.8,15.85 l -1.5,7.17 -1.5,6.04 c -9.6,42.01 -14,92.71 -13.2,152.09 0,6.04 0.2,13.21 0.7,21.51 0.5,11.07 1.3,22.14 2.3,33.22 3,30.44 7.3,56.98 12.8,79.63 16.6,66.67 41.7,89.07 75.1,67.18 22.9,-20.63 38.4,-54.35 46.5,-101.15 3,-17.11 5.1,-36.98 6.4,-59.63 0.2,-8.3 0.6,-17.74 1.1,-28.3 l 0.4,-13.21 v -12.84 c 1.2,-45.79 -1.5,-89.94 -8.3,-132.47 l -0.4,-2.64 -0.4,-3.39 c -0.5,-2.77 -1,-5.29 -1.5,-7.55 -1,-6.29 -2.1,-12.21 -3.4,-17.74 -3.2,-15.1 -7.1,-28.18 -11.7,-39.25 -12.3,-31.7 -28,-46.04 -47.2,-43.03 z m 107.2,181.16 c 3.8,57.11 0.8,116.24 -9,177.38 -4.6,27.68 -10.3,50.83 -17.4,69.44 -9.5,25.67 -22.4,45.42 -38.5,59.26 l -2.2,1.88 -1.2,1.14 c -14.6,10.06 -29.9,14.34 -46,12.83 -15.1,-1.51 -29.7,-8.05 -43.8,-19.63 -17.4,-14.34 -30.2,-37.23 -38.5,-68.68 -3,-11.58 -5.7,-25.29 -7.9,-41.14 -1,-5.29 -2,-11.95 -3,-20 l -1.2,-9.44 -1.1,-9.06 c -8.1,-61.64 -7.1,-129.07 3,-202.29 2.3,-15.6 4.5,-29.18 6.8,-40.76 3.3,-16.1 7.2,-30.44 11.7,-43.02 11.3,-32.71 26.9,-56.11 46.8,-70.2 46.8,-33.21 83.5,-16.73 110.2,49.44 9.6,23.15 17.2,51.33 23,84.54 2.3,12.83 4.2,25.79 5.7,38.87 1.2,10.57 2.1,20.38 2.6,29.44"
         style="fill:#ffffff;fill-opacity:1;fill-rule:nonzero;stroke:none"
         id="path142" />
      <path
         d="m 18436.4,5305.69 c 11.6,0.25 20.9,0.12 28,-0.38 10.5,-0.5 19.6,-1.89 27.2,-4.15 18.8,-5.79 30.8,-17.74 35.8,-35.86 7,-24.65 -0.2,-45.66 -21.9,-63.02 -17.6,-13.84 -40.5,-22.9 -68.7,-27.18 z m 136.7,-485.35 c -9.1,48.31 -24.3,103.28 -45.7,164.93 -7.5,21.38 -17.4,48.18 -29.4,80.39 l -30.2,80.01 c 27.9,7.8 50.3,20.12 67.1,36.98 19.7,19.38 29.6,42.65 29.9,69.82 0.2,37.24 -16.4,62.53 -49.9,75.86 -13,5.03 -29,8.56 -47.9,10.57 -13.1,1.26 -29.5,1.76 -49.4,1.51 -6.1,0 -10.6,-2.39 -13.6,-7.17 -3,-4.28 -4,-9.06 -3,-14.34 0,-56.61 0.6,-140.53 1.9,-251.73 l 1.1,-126.06 0.4,-126.05 c 0,-5.29 1.9,-9.56 5.6,-12.83 3.3,-2.77 7.3,-4.16 12.1,-4.16 4.8,0 8.8,1.39 12.1,4.16 3.8,3.27 5.7,7.54 5.7,12.83 0,44.28 -0.3,96.11 -0.8,155.49 l -1.5,155.49 14.3,-38.87 14.7,-38.5 c 11.6,-30.69 21.1,-56.73 28.3,-78.12 20.4,-59.38 35.2,-112.59 44.2,-159.64 1,-5.29 3.7,-8.94 7.9,-10.95 3.6,-2.01 7.7,-2.39 12.5,-1.13 4.5,1.26 8.2,3.77 10.9,7.55 2.8,4.02 3.7,8.68 2.7,13.96"
         style="fill:#ffffff;fill-opacity:1;fill-rule:nonzero;stroke:none"
         id="path144" />
      <path
         d="m 19037.8,4815.06 c 0,54.34 -0.5,135.61 -1.5,243.8 l -1.1,121.91 -0.8,122.28 29.5,-1.14 29.4,-0.75 c 11.6,0 17.3,5.91 17.3,17.74 0,11.57 -5.7,17.48 -17.3,17.73 l -39.3,0.76 -39.6,1.13 c -30.9,0.76 -57.1,-0.12 -78.5,-2.64 -5.3,-0.5 -9.5,-2.77 -12.8,-6.79 -2.8,-3.53 -4.2,-7.68 -4.2,-12.46 0,-4.78 1.4,-8.68 4.2,-11.7 3,-3.27 7.3,-4.65 12.8,-4.15 17.9,2.01 39,3.02 63.4,3.02 l 0.4,-122.28 1.1,-122.28 c 1,-108.19 1.5,-189.58 1.5,-244.18 0,-11.33 6,-16.99 17.8,-16.99 11.8,0 17.7,5.66 17.7,16.99"
         style="fill:#ffffff;fill-opacity:1;fill-rule:nonzero;stroke:none"
         id="path146" />
      <path
         d="m 19427.9,4815.06 c -2.7,68.69 -3.7,153.35 -3,253.99 l 0.8,127.19 c 0.5,52.33 0.7,94.73 0.7,127.19 0,11.32 -5.9,16.98 -17.7,16.98 -11.6,0 -17.4,-5.66 -17.4,-16.98 0,-34.98 -0.3,-84.17 -1.1,-147.57 l -107.9,-0.76 c -0.5,52.34 -1.4,101.78 -2.7,148.33 0,5.28 -1.9,9.56 -5.6,12.83 -3.3,2.76 -7.3,4.15 -12.1,4.15 -4.8,0 -8.8,-1.39 -12.1,-4.15 -3.5,-3.27 -5.3,-7.55 -5.3,-12.83 3.5,-150.46 3.8,-319.92 0.8,-508.37 0,-5.29 1.7,-9.56 5.3,-12.83 3.2,-2.77 7.3,-4.16 12,-4.16 4.8,0 8.8,1.39 12.1,4.16 3.8,3.27 5.8,7.54 6.1,12.83 1.7,115.99 2.2,224.3 1.5,324.95 l 53.9,0.37 h 54 c -1.3,-139.64 -0.5,-248.08 2.3,-325.32 0.5,-11.33 6.6,-16.99 18.5,-16.99 11.5,0 17.2,5.66 16.9,16.99"
         style="fill:#ffffff;fill-opacity:1;fill-rule:nonzero;stroke:none"
         id="path148" />
      <path
         d="m 19567.1,4807.13 c 3,-6.04 8,-9.06 15.1,-9.06 h 107.6 c 11.3,0 16.9,5.92 16.9,17.74 0,11.58 -5.6,17.36 -16.9,17.36 h -89.9 c -1.5,76.24 -2,178.64 -1.5,307.21 h 91.4 c 11.3,0 16.9,5.92 16.9,17.74 0,4.78 -1.3,8.81 -4.1,12.08 -3.3,3.77 -7.6,5.66 -12.8,5.66 h -91 l 0.4,130.58 45.3,-0.38 45.3,0.38 c 11.5,0 17.3,5.91 17.3,17.74 0,4.78 -1.5,8.81 -4.5,12.08 -3,3.52 -7.3,5.28 -12.8,5.28 h -106.1 c -5.3,0.5 -9.8,-0.63 -13.6,-3.4 -4,-3.02 -6,-7.42 -6,-13.21 l -0.4,-127.56 -0.8,-127.19 c -0.2,-100.13 0.4,-184.92 1.9,-254.37 0,-3.27 0.8,-6.16 2.3,-8.68"
         style="fill:#ffffff;fill-opacity:1;fill-rule:nonzero;stroke:none"
         id="path150" />
      <path
         d="m 20108.8,5164.16 c -7.3,23.15 -10.4,45.67 -9.4,67.56 1.2,26.41 8.7,47.42 22.3,63.02 10,11.32 20,16.1 29.8,14.34 8.5,-1.25 15.6,-7.17 21.1,-17.73 5.3,-9.82 7.4,-20.51 6.4,-32.08 -1.2,-12.84 -6.1,-22.77 -14.7,-29.82 -4.3,-3.27 -6.3,-7.17 -6,-11.7 0,-4.28 1.7,-8.05 5.3,-11.32 8.3,-8.3 16.8,-8.93 25.6,-1.89 10.1,8.3 17.2,19.5 21.5,33.59 4.1,13.08 5.1,26.92 3.1,41.52 -1.8,14.59 -6.5,27.55 -14,38.87 -8.1,12.08 -18.1,20.5 -30.2,25.29 -12.3,4.52 -26.5,3.14 -42.7,-4.16 -13.8,-6.29 -25.5,-14.84 -35.1,-25.66 -11,-12.83 -18.7,-29.56 -23,-50.2 -3.2,-16.1 -4.4,-34.47 -3.4,-55.1 1.5,-35.72 11.4,-69.57 29.5,-101.52 7.5,-13.08 20.5,-29.81 38.8,-50.19 l 11,-11.7 10.6,-12.08 c 7.5,-9.06 13.8,-17.49 18.8,-25.29 10.8,-17.11 17.6,-37.11 20.4,-60.01 2.5,-21.88 0.9,-42.89 -4.9,-63.02 -3.5,-12.58 -10.2,-23.78 -20,-33.59 -10.6,-10.32 -22.2,-15.98 -34.7,-16.99 -12.4,-1.25 -21.8,6.55 -28.3,23.4 -2.5,6.04 -4.6,13.09 -6.1,21.14 -1.2,6.29 -1.9,12.33 -1.9,18.11 -0.5,11.33 -6.6,16.99 -18.5,16.99 -11.8,0 -17.4,-5.66 -16.9,-16.99 1.2,-29.43 10,-54.47 26.4,-75.1 19.3,-23.9 42.9,-29.81 70.6,-17.74 31.7,13.84 52.7,38.25 63,73.22 8.8,29.44 9.2,62.52 1.1,99.26 -6,26.67 -24.6,58.37 -55.8,95.1 l -17.8,21.14 c -6.5,8.05 -12.1,15.47 -16.6,22.27 -11.8,16.85 -20.2,33.21 -25.3,49.06"
         style="fill:#ffffff;fill-opacity:1;fill-rule:nonzero;stroke:none"
         id="path152" />
      <path
         d="m 20366.1,4807.13 c 3,-6.04 8.1,-9.06 15.1,-9.06 h 107.6 c 11.3,0 17,5.92 17,17.74 0,11.58 -5.7,17.36 -17,17.36 h -89.9 c -1.5,76.24 -2,178.64 -1.5,307.21 h 91.4 c 11.3,0 17,5.92 17,17.74 0,4.78 -1.4,8.81 -4.2,12.08 -3.3,3.77 -7.5,5.66 -12.8,5.66 h -91 l 0.4,130.58 45.3,-0.38 45.3,0.38 c 11.5,0 17.3,5.91 17.3,17.74 0,4.78 -1.5,8.81 -4.5,12.08 -3,3.52 -7.3,5.28 -12.8,5.28 h -106.1 c -5.3,0.5 -9.8,-0.63 -13.6,-3.4 -4,-3.02 -6,-7.42 -6,-13.21 l -0.4,-127.56 -0.7,-127.19 c -0.3,-100.13 0.3,-184.92 1.8,-254.37 0,-3.27 0.8,-6.16 2.3,-8.68"
         style="fill:#ffffff;fill-opacity:1;fill-rule:nonzero;stroke:none"
         id="path154" />
      <path
         d="m 20690.2,4938.85 7.9,60.76 c 3,23.15 5.8,43.28 8.3,60.38 l 22.7,148.33 c 8.3,-54.35 14.9,-99.39 20,-135.12 2.7,-18.61 5.9,-41.01 9.4,-67.17 l 8.7,-67.18 z m 95.9,-127.94 c 1,-5.29 3.5,-8.94 7.5,-10.95 3.8,-2.01 7.9,-2.39 12.5,-1.13 4.5,1.26 8.1,3.77 10.9,7.55 3,4.02 4,8.68 3,13.96 -4.3,24.91 -8.8,54.35 -13.6,88.31 4.1,3.78 5.7,8.81 4.9,15.1 -0.7,6.29 -3.6,10.69 -8.6,13.21 l -8.3,66.05 c -3.6,25.91 -6.6,48.05 -9.1,66.42 l -39.6,259.66 c -1.5,9.81 -7.2,14.09 -17,12.83 -9.8,1.26 -15.5,-3.02 -17,-12.83 l -18.9,-123.04 -18.5,-123.79 c -2.5,-18.11 -5.5,-39.88 -9,-65.29 l -8.3,-65.67 c -7.1,-53.59 -13.6,-97.24 -19.6,-130.96 -2.1,-11.07 2.6,-18.24 13.9,-21.51 4.8,-1.26 9,-0.88 12.5,1.13 4.3,2.01 6.8,5.66 7.5,10.95 4.8,26.16 9.6,57.11 14.4,92.84 h 86 c 5,-35.48 9.8,-66.43 14.4,-92.84"
         style="fill:#ffffff;fill-opacity:1;fill-rule:nonzero;stroke:none"
         id="path156" />
      <path
         d="m 20998,5164.16 c -7.2,23.15 -10.4,45.67 -9.4,67.56 1.3,26.41 8.7,47.42 22.3,63.02 10,11.32 20,16.1 29.8,14.34 8.5,-1.25 15.6,-7.17 21.1,-17.73 5.3,-9.82 7.5,-20.51 6.4,-32.08 -1.2,-12.84 -6.1,-22.77 -14.7,-29.82 -4.3,-3.27 -6.3,-7.17 -6,-11.7 0,-4.28 1.7,-8.05 5.3,-11.32 8.3,-8.3 16.8,-8.93 25.6,-1.89 10.1,8.3 17.3,19.5 21.5,33.59 4.1,13.08 5.1,26.92 3.1,41.52 -1.8,14.59 -6.4,27.55 -14,38.87 -8.1,12.08 -18.1,20.5 -30.2,25.29 -12.3,4.52 -26.5,3.14 -42.6,-4.16 -13.9,-6.29 -25.6,-14.84 -35.1,-25.66 -11.1,-12.83 -18.8,-29.56 -23.1,-50.2 -3.2,-16.1 -4.4,-34.47 -3.4,-55.1 1.6,-35.72 11.4,-69.57 29.5,-101.52 7.5,-13.08 20.5,-29.81 38.8,-50.19 l 11,-11.7 10.6,-12.08 c 7.5,-9.06 13.8,-17.49 18.8,-25.29 10.9,-17.11 17.6,-37.11 20.4,-60.01 2.5,-21.88 0.9,-42.89 -4.9,-63.02 -3.5,-12.58 -10.2,-23.78 -20,-33.59 -10.6,-10.32 -22.1,-15.98 -34.7,-16.99 -12.3,-1.25 -21.8,6.55 -28.3,23.4 -2.5,6.04 -4.5,13.09 -6.1,21.14 -1.2,6.29 -1.8,12.33 -1.8,18.11 -0.5,11.33 -6.7,16.99 -18.5,16.99 -11.9,0 -17.5,-5.66 -17,-16.99 1.2,-29.43 10,-54.47 26.4,-75.1 19.4,-23.9 42.9,-29.81 70.6,-17.74 31.7,13.84 52.7,38.25 63,73.22 8.8,29.44 9.2,62.52 1.1,99.26 -6,26.67 -24.6,58.37 -55.8,95.1 l -17.8,21.14 c -6.5,8.05 -12,15.47 -16.6,22.27 -11.8,16.85 -20.2,33.21 -25.3,49.06"
         style="fill:#ffffff;fill-opacity:1;fill-rule:nonzero;stroke:none"
         id="path158" />
      <path
         d="m 21359.1,4835.81 c -16.8,2.77 -30.8,17.62 -41.9,44.54 -3.8,9.56 -7.3,20.88 -10.5,33.97 -1.3,4.78 -2.6,10.06 -3.8,15.85 l -1.5,7.17 -1.5,6.04 c -9.6,42.01 -14,92.71 -13.2,152.09 0,6.04 0.2,13.21 0.7,21.51 0.5,11.07 1.3,22.14 2.3,33.22 3,30.44 7.3,56.98 12.8,79.63 16.6,66.67 41.6,89.07 75.1,67.18 22.9,-20.63 38.4,-54.35 46.4,-101.15 3,-17.11 5.2,-36.98 6.4,-59.63 0.3,-8.3 0.7,-17.74 1.2,-28.3 l 0.4,-13.21 v -12.84 c 1.2,-45.79 -1.6,-89.94 -8.3,-132.47 l -0.4,-2.64 -0.4,-3.39 c -0.5,-2.77 -1,-5.29 -1.5,-7.55 -1,-6.29 -2.2,-12.21 -3.4,-17.74 -3.3,-15.1 -7.2,-28.18 -11.7,-39.25 -12.3,-31.7 -28.1,-46.04 -47.2,-43.03 z m 107.2,181.16 c 3.8,57.11 0.8,116.24 -9.1,177.38 -4.5,27.68 -10.3,50.83 -17.3,69.44 -9.6,25.67 -22.4,45.42 -38.5,59.26 l -2.3,1.88 -1.1,1.14 c -14.6,10.06 -30,14.34 -46.1,12.83 -15.1,-1.51 -29.6,-8.05 -43.7,-19.63 -17.4,-14.34 -30.2,-37.23 -38.5,-68.68 -3.1,-11.58 -5.7,-25.29 -8,-41.14 -1,-5.29 -2,-11.95 -3,-20 l -1.1,-9.44 -1.2,-9.06 c -8,-61.64 -7,-129.07 3.1,-202.29 2.2,-15.6 4.5,-29.18 6.8,-40.76 3.2,-16.1 7.1,-30.44 11.7,-43.02 11.3,-32.71 26.9,-56.11 46.8,-70.2 46.8,-33.21 83.5,-16.73 110.2,49.44 9.5,23.15 17.2,51.33 23,84.54 2.3,12.83 4.1,25.79 5.7,38.87 1.2,10.57 2.1,20.38 2.6,29.44"
         style="fill:#ffffff;fill-opacity:1;fill-rule:nonzero;stroke:none"
         id="path160" />
      <path
         d="m 21702.4,5004.52 17.4,-63.79 c 14.3,-53.08 26.3,-95.48 35.8,-127.18 1.3,-8.56 6.6,-13.21 15.9,-13.97 9.1,-0.75 15,2.77 17.7,10.57 1.3,2.77 1.7,5.66 1.2,8.68 v 506.86 c 0,11.32 -5.8,16.98 -17.4,16.98 -11.8,0 -17.7,-5.66 -17.7,-16.98 v -381.18 l -16.2,60.01 -16.3,59.63 c -8.5,30.44 -22.4,74.6 -41.5,132.47 l -21.5,66.04 c -8.1,24.41 -14.8,46.42 -20.4,66.05 -0.5,3.02 -1.8,5.66 -3.8,7.92 l -0.7,0.76 -0.4,0.75 c -5.3,5.04 -11.7,6.04 -19.2,3.02 -8.1,-3.02 -11.7,-8.55 -11,-16.6 -3.8,-67.68 -5,-152.48 -3.8,-254.38 l 2.3,-127.56 c 0.8,-51.33 1.1,-93.85 1.1,-127.56 0,-11.33 6,-16.99 17.8,-16.99 11.8,0 17.7,5.66 17.7,16.99 0,28.93 -0.4,62.77 -1.1,101.52 l -1.5,101.52 c -1.5,84.54 -1.8,152.35 -0.8,203.43 l 12.9,-38.12 12.4,-38.5 c 9.6,-29.18 17.5,-54.85 23.8,-76.99 l 17.3,-63.4"
         style="fill:#ffffff;fill-opacity:1;fill-rule:nonzero;stroke:none"
         id="path162" />
    </g>
  </g>
</svg>
